<?xml version="1.0" encoding="utf-8"?>
<!-- Generator: Adobe Illustrator 15.0.2, SVG Export Plug-In . SVG Version: 6.00 Build 0)  -->
<!DOCTYPE svg PUBLIC "-//W3C//DTD SVG 1.1//EN" "http://www.w3.org/Graphics/SVG/1.1/DTD/svg11.dtd">
<svg version="1.1" id="Ebene_1" xmlns="http://www.w3.org/2000/svg" xmlns:xlink="http://www.w3.org/1999/xlink" x="0px" y="0px"
	 width="32px" height="32px" viewBox="0 0 32 32" enable-background="new 0 0 32 32" xml:space="preserve">
<g>
	<path fill="none" d="M20.388,9.176L20.388,9.176c-0.302-0.218-0.619-0.428-0.957-0.604c-0.002-0.001-0.005-0.01-0.013-0.011
		c-0.077-0.042-0.157-0.076-0.231-0.118c-0.004-0.002-0.018-0.01-0.028-0.012c-0.074-0.043-0.147-0.075-0.23-0.105
		c-0.026-0.013-0.046-0.026-0.072-0.039c-0.057-0.027-0.112-0.045-0.169-0.071c-0.028-0.013-0.049-0.028-0.087-0.033
		c-0.073-0.03-0.147-0.069-0.232-0.099c-0.071-0.027-0.14-0.046-0.212-0.072c-0.046-0.016-0.091-0.03-0.135-0.045
		c-0.026-0.011-0.052-0.023-0.082-0.027c-0.044-0.014-0.089-0.029-0.143-0.043c-0.019-0.012-0.047-0.015-0.074-0.027
		c-0.044-0.012-0.088-0.019-0.13-0.03c-0.041-0.015-0.083-0.027-0.124-0.03c-0.031-0.011-0.06-0.023-0.091-0.027
		c-0.242-0.057-0.474-0.101-0.716-0.141c0,0,0,0-0.002,0c-0.083-0.004-0.156-0.017-0.229-0.029
		c-2.884-0.332-5.739,0.889-7.498,3.181v0.001c-0.303,0.401-0.575,0.821-0.804,1.28c0,0,0,0,0,0.01
		c-0.087,0.172-0.172,0.344-0.245,0.529c-0.012,0.016-0.016,0.032-0.028,0.048c-0.031,0.095-0.071,0.183-0.101,0.27
		c-0.218,0.591-0.372,1.205-0.447,1.809H7.307c-0.398,2.972,0.877,5.946,3.274,7.703l0,0c0.228,0.17,0.459,0.319,0.705,0.479
		c0.012,0.002,0.026,0.007,0.039,0.011c0.056,0.029,0.104,0.06,0.162,0.087c0.051,0.027,0.086,0.057,0.137,0.084
		c0.016,0.004,0.033,0.022,0.048,0.024c0.171,0.088,0.344,0.174,0.527,0.255c0.003,0,0.015,0,0.018,0.005
		c0.056,0.028,0.115,0.054,0.171,0.063c0.074,0.029,0.144,0.058,0.215,0.088c0.646,0.245,1.302,0.396,1.952,0.479l0,0
		c2.881,0.32,5.736-0.91,7.483-3.187l0,0c0.478-0.632,0.878-1.349,1.177-2.144c0.221-0.602,0.361-1.204,0.447-1.812h0.002
		C24.06,13.908,22.784,10.942,20.388,9.176z"/>
	<path fill="#AAB6CD" d="M22.297,2.807c0.028,0.017,0.06,0.031,0.099,0.056C22.356,2.837,22.325,2.823,22.297,2.807z"/>
	<path fill="#AAB6CD" d="M22.955,3.168c0.021,0.012,0.046,0.029,0.071,0.043C23.001,3.197,22.974,3.183,22.955,3.168z"/>
	<path fill="#AAB6CD" d="M23.874,3.754c0.016,0.012,0.029,0.026,0.043,0.031C23.903,3.782,23.89,3.767,23.874,3.754z"/>
	<path fill="#AAB6CD" d="M23.588,3.567v0.001C23.588,3.567,23.588,3.567,23.588,3.567z"/>
	<path fill="#AAB6CD" d="M23.229,3.34c0.031,0.016,0.06,0.039,0.091,0.055C23.289,3.379,23.261,3.355,23.229,3.34z"/>
	<path fill="#AAB6CD" d="M22.585,2.965c0.032,0.017,0.067,0.041,0.102,0.056C22.655,2.997,22.617,2.98,22.585,2.965z"/>
	<path fill="#AAB6CD" d="M21.927,2.621c0.037,0.015,0.068,0.03,0.097,0.045C21.995,2.651,21.956,2.636,21.927,2.621z"/>
	<path fill="#AAB6CD" d="M20.92,2.178c0.033,0.012,0.07,0.026,0.101,0.04C20.99,2.204,20.953,2.19,20.92,2.178z"/>
	<path fill="#AAB6CD" d="M20.232,1.92c0.015,0.01,0.04,0.013,0.058,0.015C20.272,1.933,20.247,1.93,20.232,1.92z"/>
	<path fill="#AAB6CD" d="M29.972,18.227c-0.016,0.082-0.028,0.172-0.043,0.257C29.943,18.398,29.956,18.311,29.972,18.227z"/>
	<path fill="#AAB6CD" d="M21.622,2.477c0.031,0.015,0.06,0.03,0.097,0.044C21.682,2.504,21.653,2.491,21.622,2.477z"/>
	<path fill="#AAB6CD" d="M21.267,2.319c0.026,0.012,0.041,0.017,0.06,0.028C21.308,2.336,21.293,2.332,21.267,2.319z"/>
	<path fill="#AAB6CD" d="M29.624,19.776c-0.028,0.11-0.057,0.204-0.096,0.311C29.567,19.98,29.598,19.887,29.624,19.776z"/>
	<path fill="#AAB6CD" d="M28.655,22.3c-0.004,0.024-0.016,0.032-0.019,0.055C28.64,22.33,28.651,22.324,28.655,22.3z"/>
	<path fill="#AAB6CD" d="M28.981,21.607c-0.012,0.01-0.016,0.035-0.028,0.062C28.966,21.643,28.97,21.617,28.981,21.607z"/>
	<path fill="#AAB6CD" d="M28.493,22.643c-0.012,0.002-0.012,0.006-0.014,0.026C28.479,22.648,28.481,22.645,28.493,22.643z"/>
	<path fill="#AAB6CD" d="M28.304,22.984L28.304,22.984L28.304,22.984z"/>
	<path fill="#AAB6CD" d="M29.123,21.268c-0.013,0.025-0.025,0.053-0.04,0.079C29.098,21.32,29.11,21.293,29.123,21.268z"/>
	<path fill="#AAB6CD" d="M28.136,23.272c-0.016,0.025-0.026,0.034-0.03,0.055C28.119,23.307,28.12,23.298,28.136,23.272z"/>
	<path fill="#AAB6CD" d="M29.513,20.17c-0.041,0.1-0.074,0.213-0.113,0.328C29.438,20.4,29.472,20.27,29.513,20.17z"/>
	<path fill="#AAB6CD" d="M29.726,19.399c-0.025,0.09-0.045,0.177-0.07,0.267C29.681,19.576,29.7,19.489,29.726,19.399z"/>
	<path fill="#AAB6CD" d="M29.385,20.553c-0.044,0.135-0.09,0.26-0.142,0.396C29.295,20.812,29.339,20.688,29.385,20.553z"/>
	<path fill="#AAB6CD" d="M29.814,19.023c-0.017,0.066-0.042,0.154-0.058,0.237C29.772,19.178,29.798,19.094,29.814,19.023z"/>
	<path fill="#AAB6CD" d="M27.949,23.589c-0.013,0.004-0.015,0.026-0.026,0.031C27.935,23.615,27.935,23.593,27.949,23.589z"/>
	<path fill="#AAB6CD" d="M19.874,1.804c0.016,0.002,0.027,0.012,0.042,0.014C19.901,1.816,19.89,1.806,19.874,1.804z"/>
	<path fill="#AAB6CD" d="M29.897,18.628c-0.014,0.086-0.027,0.167-0.043,0.235C29.87,18.795,29.884,18.712,29.897,18.628z"/>
	<path fill="#AAB6CD" d="M19.156,1.601c0.026,0.002,0.039,0.006,0.058,0.015C19.188,1.607,19.173,1.604,19.156,1.601z"/>
	<path fill="#AAB6CD" d="M7.58,28.183c-0.128-0.065-0.244-0.149-0.37-0.233C7.336,28.033,7.453,28.118,7.58,28.183z"/>
	<path fill="#AAB6CD" d="M9.143,29.063c-0.46-0.224-0.903-0.459-1.332-0.735C8.24,28.59,8.683,28.84,9.143,29.063z"/>
	<path fill="#AAB6CD" d="M7.152,27.915c-0.057-0.048-0.104-0.079-0.159-0.112C7.049,27.836,7.096,27.869,7.152,27.915z"/>
	<path fill="#AAB6CD" d="M0.969,13.564C0.969,13.564,0.969,13.564,0.969,13.564C0.969,13.564,0.969,13.564,0.969,13.564z"/>
	<path fill="#AAB6CD" d="M9.79,29.352c-0.213-0.087-0.417-0.191-0.617-0.281C9.374,29.16,9.576,29.265,9.79,29.352z"/>
	<path fill="#AAB6CD" d="M7.797,28.326c-0.07-0.035-0.133-0.084-0.204-0.121C7.656,28.242,7.727,28.291,7.797,28.326z"/>
	<path fill="#AAB6CD" d="M12.302,30.157c-0.204-0.057-0.406-0.107-0.618-0.165C11.896,30.05,12.098,30.101,12.302,30.157z"/>
	<path fill="#AAB6CD" d="M11.566,29.963c-0.083-0.029-0.167-0.038-0.243-0.066C11.4,29.925,11.482,29.934,11.566,29.963z"/>
	<path fill="#AAB6CD" d="M10.75,29.705c-0.029-0.003-0.059-0.007-0.086-0.029C10.692,29.698,10.721,29.702,10.75,29.705z"/>
	<path fill="#AAB6CD" d="M11.151,29.844c-0.042-0.004-0.085-0.026-0.127-0.033C11.065,29.817,11.109,29.84,11.151,29.844z"/>
	<path fill="#AAB6CD" d="M10.063,29.468c-0.044-0.026-0.1-0.053-0.145-0.06C9.963,29.415,10.019,29.441,10.063,29.468z"/>
	<path fill="#AAB6CD" d="M1.013,13.28c0.012-0.032,0.013-0.071,0.026-0.103C1.026,13.217,1.025,13.248,1.013,13.28z"/>
	<path fill="#AAB6CD" d="M17.665,1.29c0.032,0.01,0.072,0.013,0.112,0.023C17.737,1.303,17.697,1.3,17.665,1.29z"/>
	<path fill="#AAB6CD" d="M17.309,1.245c0.054,0.003,0.1,0.013,0.144,0.017C17.408,1.257,17.362,1.256,17.309,1.245z"/>
	<path fill="#AAB6CD" d="M1.855,10.355c0.003-0.016,0.014-0.033,0.018-0.058C1.869,10.321,1.859,10.339,1.855,10.355z"/>
	<path fill="#AAB6CD" d="M2.001,10.004c0-0.009,0.002-0.013,0.012-0.025C2.003,9.991,2.001,9.995,2.001,10.004z"/>
	<path fill="#AAB6CD" d="M18.782,1.504c0.017,0.01,0.042,0.012,0.061,0.016C18.824,1.516,18.799,1.514,18.782,1.504z"/>
	<path fill="#AAB6CD" d="M18.053,1.358c0.038,0.003,0.068,0.014,0.101,0.017C18.121,1.372,18.091,1.361,18.053,1.358z"/>
	<path fill="#AAB6CD" d="M1.597,11.053c0.043-0.125,0.086-0.243,0.13-0.36C1.683,10.81,1.64,10.929,1.597,11.053z"/>
	<path fill="#AAB6CD" d="M1.169,12.548c0.002-0.042,0.017-0.085,0.028-0.129C1.184,12.463,1.171,12.506,1.169,12.548z"/>
	<path fill="#AAB6CD" d="M1.256,12.172c0.014-0.042,0.026-0.083,0.03-0.125C1.282,12.089,1.27,12.129,1.256,12.172z"/>
	<path fill="#AAB6CD" d="M1.083,12.923c0.012-0.035,0.016-0.086,0.028-0.128C1.1,12.837,1.096,12.888,1.083,12.923z"/>
	<path fill="#AAB6CD" d="M1.472,11.415c0.014-0.033,0.029-0.074,0.04-0.113C1.499,11.343,1.485,11.382,1.472,11.415z"/>
	<path fill="#AAB6CD" d="M1.357,11.799c0.013-0.042,0.027-0.085,0.039-0.116C1.384,11.716,1.37,11.756,1.357,11.799z"/>
	<path fill="#AAB6CD" d="M18.452,1.432c0.015,0.003,0.028,0.011,0.045,0.012C18.479,1.443,18.467,1.435,18.452,1.432z"/>
	<path fill="#AAB6CD" d="M17.592,7.842c0.04,0.011,0.086,0.018,0.129,0.031C17.677,7.86,17.632,7.853,17.592,7.842z"/>
	<path fill="#AAB6CD" d="M17.796,7.899c0.054,0.014,0.099,0.029,0.143,0.042C17.895,7.928,17.85,7.913,17.796,7.899z"/>
	<path fill="#AAB6CD" d="M18.021,7.959c0.044,0.024,0.089,0.037,0.135,0.054C18.109,7.996,18.064,7.984,18.021,7.959z"/>
	<path fill="#AAB6CD" d="M17.376,7.784c0.029,0.004,0.06,0.015,0.089,0.027C17.437,7.799,17.408,7.788,17.376,7.784z"/>
	<path fill="#AAB6CD" d="M7.855,12.664c0.012-0.016,0.016-0.033,0.027-0.049C7.871,12.631,7.867,12.648,7.855,12.664z"/>
	<path fill="#AAB6CD" d="M18.608,8.184c0.029,0.004,0.057,0.021,0.078,0.031C18.665,8.202,18.638,8.188,18.608,8.184z"/>
	<path fill="#AAB6CD" d="M16.649,7.644c0.009,0,0.01,0,0.012,0C16.659,7.644,16.658,7.644,16.649,7.644z"/>
	<path fill="#AAB6CD" d="M8.127,12.086c0-0.01,0-0.01,0-0.01S8.127,12.076,8.127,12.086z"/>
	<path fill="#AAB6CD" d="M11.324,22.937c-0.014-0.004-0.027-0.009-0.04-0.013C11.297,22.928,11.311,22.933,11.324,22.937z"/>
	<path fill="#AAB6CD" d="M18.855,8.286c0.028,0.013,0.052,0.027,0.072,0.033C18.907,8.312,18.884,8.301,18.855,8.286z"/>
	<path fill="#AAB6CD" d="M22.037,20.833c-1.745,2.276-4.601,3.507-7.474,3.187l-0.727,6.394c-0.505-0.058-1.018-0.144-1.523-0.256
		c5.766,1.271,11.703-1.057,15.092-5.761c-0.087,0.114-0.172,0.23-0.262,0.343L22.037,20.833z"/>
	<path fill="#AAB6CD" d="M10.58,22.447c-2.396-1.76-3.672-4.734-3.282-7.706l-6.374-0.833c-0.714,5.35,1.61,10.683,5.967,13.812
		c-0.043-0.027-0.088-0.06-0.131-0.087L10.58,22.447z"/>
	<path fill="#AAB6CD" d="M19.168,8.43c0.001,0.001,0.015,0.011,0.021,0.013C19.183,8.441,19.169,8.434,19.168,8.43z"/>
	<path fill="#AAB6CD" d="M19.419,8.562c0.007,0,0.012,0,0.012,0.01C19.429,8.571,19.426,8.562,19.419,8.562z"/>
	<path fill="#AAB6CD" d="M23.673,16.88l6.372,0.832c-0.015,0.135-0.031,0.256-0.058,0.376C30.849,12.676,28.578,7.224,24.205,4
		l-3.819,5.178C22.784,10.942,24.06,13.908,23.673,16.88z"/>
	<path fill="#AAB6CD" d="M11.623,23.105c-0.051-0.027-0.095-0.054-0.137-0.082C11.537,23.049,11.572,23.078,11.623,23.105z"/>
	<path fill="#AAB6CD" d="M12.199,23.383c-0.184-0.081-0.356-0.165-0.528-0.253C11.842,23.218,12.015,23.302,12.199,23.383z"/>
	<path fill="#AAB6CD" d="M27.748,23.902c-0.017,0.027-0.04,0.056-0.056,0.085C27.717,23.958,27.731,23.93,27.748,23.902z"/>
	<path fill="#AAB6CD" d="M12.387,23.453c-0.056-0.01-0.113-0.035-0.171-0.062C12.284,23.418,12.331,23.443,12.387,23.453z"/>
	<path fill="#AAB6CD" d="M27.575,24.164c-0.029,0.031-0.058,0.081-0.085,0.116C27.518,24.243,27.546,24.195,27.575,24.164z"/>
	<path fill="#FFFFFF" d="M9.171,29.07c-0.014-0.004-0.025-0.007-0.028-0.007C9.146,29.066,9.158,29.066,9.171,29.07z"/>
	<path fill="#FFFFFF" d="M11.025,29.811c-0.088-0.028-0.187-0.06-0.274-0.105C10.839,29.751,10.935,29.782,11.025,29.811z"/>
	<path fill="#FFFFFF" d="M12.216,23.392c-0.003-0.007-0.015-0.007-0.018-0.009C12.202,23.385,12.213,23.385,12.216,23.392z"/>
	<path fill="#FFFFFF" d="M9.918,29.408c-0.042-0.023-0.086-0.048-0.129-0.057C9.833,29.362,9.875,29.385,9.918,29.408z"/>
	<path fill="#FFFFFF" d="M10.351,29.58c-0.09-0.047-0.188-0.081-0.288-0.112C10.162,29.499,10.261,29.533,10.351,29.58z"/>
	<path fill="#FFFFFF" d="M10.663,29.676c-0.109-0.032-0.21-0.062-0.311-0.096C10.453,29.613,10.554,29.644,10.663,29.676z"/>
	<path fill="#FFFFFF" d="M12.603,23.541c-0.072-0.03-0.142-0.059-0.213-0.088C12.461,23.482,12.531,23.511,12.603,23.541z"/>
	<path fill="#FFFFFF" d="M12.603,23.541c0.645,0.245,1.302,0.396,1.953,0.479l0,0C13.905,23.934,13.248,23.786,12.603,23.541z"/>
	<path fill="#FFFFFF" d="M7.811,28.328c-0.001,0-0.003-0.002-0.014-0.002C7.808,28.326,7.81,28.328,7.811,28.328z"/>
	<path fill="#FFFFFF" d="M10.58,22.447c0.228,0.172,0.459,0.316,0.704,0.477C11.039,22.764,10.808,22.614,10.58,22.447L10.58,22.447
		z"/>
	<path fill="#FFFFFF" d="M7.594,28.203c-0.009,0-0.011-0.018-0.014-0.021C7.582,28.186,7.584,28.203,7.594,28.203z"/>
	<path fill="#FFFFFF" d="M7.21,27.949c-0.015-0.021-0.034-0.027-0.058-0.034C7.177,27.924,7.194,27.928,7.21,27.949z"/>
	<path fill="#FFFFFF" d="M6.994,27.803c-0.031-0.027-0.071-0.052-0.102-0.082C6.923,27.751,6.963,27.777,6.994,27.803z"/>
	<path fill="#FFFFFF" d="M11.683,29.992c-0.041-0.004-0.083-0.011-0.117-0.029C11.601,29.981,11.642,29.988,11.683,29.992z"/>
	<path fill="#FFFFFF" d="M11.486,23.023c-0.057-0.029-0.105-0.057-0.162-0.087C11.38,22.967,11.429,22.994,11.486,23.023z"/>
	<path fill="#FFFFFF" d="M11.671,23.13c-0.016-0.002-0.032-0.022-0.048-0.026C11.639,23.109,11.655,23.128,11.671,23.13z"/>
	<path fill="#FFFFFF" d="M12.313,30.157c-0.009,0-0.009,0-0.011,0C12.304,30.157,12.304,30.157,12.313,30.157z"/>
	<path fill="#FFFFFF" d="M11.324,29.9c-0.057-0.023-0.115-0.033-0.173-0.057C11.209,29.867,11.266,29.877,11.324,29.9z"/>
	<path fill="#FFFFFF" d="M22.037,20.833c0.487-0.632,0.889-1.349,1.178-2.144C22.915,19.484,22.524,20.201,22.037,20.833
		L22.037,20.833z"/>
	<path fill="#FFFFFF" d="M29.846,18.861c-0.004,0.055-0.017,0.109-0.031,0.162C29.829,18.971,29.841,18.916,29.846,18.861z"/>
	<path fill="#FFFFFF" d="M29.53,20.085c-0.004,0.027-0.014,0.059-0.018,0.069C29.517,20.144,29.526,20.114,29.53,20.085z"/>
	<path fill="#FFFFFF" d="M23.215,18.689c0.229-0.602,0.375-1.204,0.458-1.812h-0.01C23.575,17.485,23.444,18.09,23.215,18.689z"/>
	<path fill="#FFFFFF" d="M27.692,23.987c-0.042,0.059-0.076,0.118-0.117,0.177C27.616,24.101,27.648,24.046,27.692,23.987z"/>
	<path fill="#FFFFFF" d="M29.757,19.265c-0.011,0.049-0.018,0.085-0.031,0.135C29.739,19.35,29.746,19.313,29.757,19.265z"/>
	<path fill="#FFFFFF" d="M28.953,21.669c-0.099,0.206-0.188,0.425-0.298,0.631C28.765,22.094,28.865,21.875,28.953,21.669z"/>
	<path fill="#FFFFFF" d="M28.105,23.327c-0.056,0.089-0.111,0.178-0.156,0.262C27.994,23.505,28.05,23.418,28.105,23.327z"/>
	<path fill="#FFFFFF" d="M27.923,23.62c-0.057,0.089-0.117,0.195-0.175,0.282C27.806,23.797,27.864,23.709,27.923,23.62z"/>
	<path fill="#FFFFFF" d="M28.637,22.354c-0.058,0.09-0.101,0.181-0.153,0.288C28.538,22.535,28.591,22.444,28.637,22.354z"/>
	<path fill="#FFFFFF" d="M29.655,19.666c-0.014,0.045-0.025,0.08-0.031,0.11C29.64,19.746,29.642,19.711,29.655,19.666z"/>
	<path fill="#FFFFFF" d="M28.304,22.984c-0.053,0.094-0.111,0.198-0.168,0.288C28.192,23.183,28.251,23.078,28.304,22.984z"/>
	<path fill="#FFFFFF" d="M29.241,20.947c-0.04,0.096-0.085,0.206-0.118,0.32C29.156,21.153,29.201,21.043,29.241,20.947z"/>
	<path fill="#FFFFFF" d="M29.083,21.35c-0.031,0.087-0.07,0.172-0.104,0.258C29.013,21.521,29.052,21.437,29.083,21.35z"/>
	<path fill="#FFFFFF" d="M29.399,20.498c-0.004,0.022-0.015,0.027-0.015,0.052C29.385,20.525,29.396,20.522,29.399,20.498z"/>
	<path fill="#FFFFFF" d="M29.929,18.483c-0.014,0.055-0.02,0.094-0.031,0.145C29.911,18.577,29.915,18.538,29.929,18.483z"/>
	<path fill="#FFFFFF" d="M28.478,22.669c-0.057,0.095-0.115,0.206-0.174,0.315C28.364,22.875,28.421,22.764,28.478,22.669z"/>
	<path fill="#FFFFFF" d="M29.987,18.09c0,0.051-0.005,0.083-0.016,0.137C29.982,18.173,29.987,18.14,29.987,18.09z"/>
	<path fill="#FFFFFF" d="M27.405,24.396c0.025-0.037,0.054-0.087,0.085-0.119C27.459,24.313,27.431,24.359,27.405,24.396z"/>
	<path fill="#FFFFFF" d="M18.928,8.319c0.083,0.037,0.156,0.07,0.24,0.111C19.084,8.389,19.011,8.355,18.928,8.319z"/>
	<path fill="#FFFFFF" d="M19.188,8.444c0.081,0.042,0.157,0.075,0.23,0.118C19.343,8.519,19.27,8.484,19.188,8.444z"/>
	<path fill="#FFFFFF" d="M17.135,1.218L17.135,1.218c0.058,0.011,0.115,0.014,0.174,0.027C17.25,1.232,17.192,1.23,17.135,1.218z"/>
	<path fill="#FFFFFF" d="M20.388,9.176c-0.302-0.218-0.619-0.428-0.957-0.604C19.772,8.757,20.086,8.958,20.388,9.176L20.388,9.176z
		"/>
	<path fill="#FFFFFF" d="M23.59,3.569c0.097,0.059,0.187,0.126,0.284,0.187C23.776,3.694,23.687,3.627,23.59,3.569z"/>
	<path fill="#FFFFFF" d="M20.616,2.06c0.104,0.042,0.205,0.076,0.304,0.119C20.821,2.135,20.72,2.102,20.616,2.06z"/>
	<path fill="#FFFFFF" d="M17.722,7.872c0.026,0.009,0.056,0.014,0.074,0.027C17.777,7.887,17.748,7.884,17.722,7.872z"/>
	<path fill="#FFFFFF" d="M17.467,7.812c0.041,0.003,0.081,0.018,0.125,0.03C17.549,7.827,17.508,7.815,17.467,7.812z"/>
	<path fill="#FFFFFF" d="M21.334,2.348c0.091,0.042,0.189,0.085,0.288,0.129C21.523,2.433,21.425,2.39,21.334,2.348z"/>
	<path fill="#FFFFFF" d="M21.021,2.218c0.083,0.032,0.161,0.07,0.246,0.104C21.182,2.279,21.104,2.25,21.021,2.218z"/>
	<path fill="#FFFFFF" d="M19.214,1.615c0.217,0.059,0.442,0.118,0.663,0.188C19.654,1.733,19.431,1.674,19.214,1.615z"/>
	<path fill="#FFFFFF" d="M20.29,1.943c0.102,0.034,0.215,0.075,0.326,0.116C20.505,2.017,20.392,1.978,20.29,1.943z"/>
	<path fill="#FFFFFF" d="M17.938,7.941c0.029,0.004,0.055,0.016,0.082,0.019C17.993,7.958,17.968,7.945,17.938,7.941z"/>
	<path fill="#FFFFFF" d="M19.916,1.817c0.103,0.031,0.214,0.07,0.316,0.102C20.132,1.887,20.019,1.848,19.916,1.817z"/>
	<path fill="#FFFFFF" d="M24.207,3.999c-0.089-0.07-0.191-0.133-0.288-0.204C24.016,3.857,24.118,3.928,24.207,3.999L24.207,3.999z"
		/>
	<path fill="#FFFFFF" d="M21.719,2.521c0.074,0.031,0.146,0.07,0.208,0.103C21.864,2.589,21.793,2.552,21.719,2.521z"/>
	<path fill="#FFFFFF" d="M16.429,7.615c0.075,0.012,0.148,0.024,0.22,0.029C16.575,7.64,16.501,7.627,16.429,7.615z"/>
	<path fill="#FFFFFF" d="M23.32,3.397c0.094,0.056,0.183,0.112,0.268,0.17C23.503,3.509,23.414,3.453,23.32,3.397z"/>
	<path fill="#FFFFFF" d="M18.843,1.52c0.109,0.027,0.212,0.055,0.313,0.082C19.057,1.573,18.942,1.547,18.843,1.52z"/>
	<path fill="#FFFFFF" d="M23.026,3.212c0.071,0.042,0.132,0.084,0.203,0.128C23.162,3.296,23.098,3.254,23.026,3.212z"/>
	<path fill="#FFFFFF" d="M22.023,2.666c0.089,0.044,0.188,0.096,0.273,0.141C22.211,2.762,22.112,2.709,22.023,2.666z"/>
	<path fill="#FFFFFF" d="M16.661,7.644c0.242,0.04,0.474,0.083,0.715,0.139C17.135,7.727,16.903,7.685,16.661,7.644z"/>
	<path fill="#FFFFFF" d="M22.687,3.021c0.086,0.046,0.175,0.1,0.269,0.147C22.867,3.122,22.782,3.067,22.687,3.021z"/>
	<path fill="#FFFFFF" d="M22.396,2.861c0.061,0.03,0.129,0.064,0.191,0.102C22.524,2.926,22.456,2.892,22.396,2.861z"/>
	<path fill="#FFFFFF" d="M18.367,8.084c0.085,0.03,0.159,0.062,0.241,0.099C18.526,8.146,18.452,8.114,18.367,8.084z"/>
	<path fill="#FFFFFF" d="M18.153,1.375c0.098,0.023,0.198,0.041,0.295,0.057C18.352,1.415,18.253,1.398,18.153,1.375z"/>
	<path fill="#FFFFFF" d="M18.687,8.214c0.057,0.027,0.112,0.046,0.169,0.072C18.799,8.26,18.743,8.241,18.687,8.214z"/>
	<path fill="#FFFFFF" d="M17.452,1.263c0.07,0.011,0.141,0.023,0.212,0.036C17.593,1.285,17.522,1.274,17.452,1.263z"/>
	<path fill="#FFFFFF" d="M17.777,1.313c0.09,0.015,0.186,0.029,0.275,0.045C17.955,1.343,17.867,1.329,17.777,1.313z"/>
	<path fill="#FFFFFF" d="M18.155,8.014c0.07,0.026,0.141,0.045,0.21,0.072C18.296,8.057,18.228,8.031,18.155,8.014z"/>
	<path fill="#FFFFFF" d="M18.497,1.444c0.097,0.017,0.188,0.042,0.285,0.06C18.685,1.486,18.584,1.461,18.497,1.444z"/>
	<path fill="#FFFFFF" d="M0.969,13.564c0.015-0.097,0.03-0.186,0.044-0.284C0.999,13.378,0.984,13.467,0.969,13.564z"/>
	<path fill="#FFFFFF" d="M1.727,10.693c0.043-0.115,0.076-0.227,0.128-0.33C1.812,10.465,1.77,10.578,1.727,10.693z"/>
	<path fill="#FFFFFF" d="M0.924,13.909L0.924,13.909c0.013-0.115,0.029-0.229,0.044-0.344C0.954,13.679,0.938,13.793,0.924,13.909z"
		/>
	<path fill="#FFFFFF" d="M7.754,12.933c0.029-0.086,0.069-0.174,0.102-0.269C7.823,12.758,7.783,12.847,7.754,12.933z"/>
	<path fill="#FFFFFF" d="M3.824,6.883c-0.716,0.932-1.323,1.965-1.81,3.097C2.501,8.858,3.108,7.815,3.824,6.883L3.824,6.883z"/>
	<path fill="#FFFFFF" d="M7.882,12.615c0.074-0.183,0.159-0.357,0.245-0.529C8.041,12.258,7.956,12.432,7.882,12.615z"/>
	<path fill="#FFFFFF" d="M1.873,10.297c0.042-0.1,0.085-0.2,0.128-0.3C1.958,10.097,1.916,10.197,1.873,10.297z"/>
	<path fill="#FFFFFF" d="M8.931,10.795c-0.302,0.393-0.573,0.821-0.803,1.281C8.358,11.617,8.629,11.188,8.931,10.795L8.931,10.795z
		"/>
	<path fill="#FFFFFF" d="M1.286,12.047c0.027-0.085,0.053-0.171,0.071-0.249C1.34,11.876,1.313,11.961,1.286,12.047z"/>
	<path fill="#FFFFFF" d="M1.197,12.42c0.017-0.084,0.042-0.163,0.059-0.249C1.24,12.258,1.214,12.335,1.197,12.42z"/>
	<path fill="#FFFFFF" d="M1.111,12.795c0.016-0.077,0.042-0.162,0.056-0.237C1.143,12.632,1.127,12.717,1.111,12.795z"/>
	<path fill="#FFFFFF" d="M7.754,12.933c-0.228,0.593-0.372,1.205-0.447,1.809h0C7.382,14.138,7.535,13.525,7.754,12.933z"/>
	<path fill="#FFFFFF" d="M1.512,11.302c0.029-0.078,0.058-0.163,0.085-0.249C1.569,11.139,1.541,11.224,1.512,11.302z"/>
	<path fill="#FFFFFF" d="M1.04,13.178c0.013-0.086,0.028-0.171,0.045-0.255C1.068,13.007,1.053,13.092,1.04,13.178z"/>
	<path fill="#FFFFFF" d="M1.397,11.683c0.019-0.085,0.047-0.181,0.075-0.266C1.444,11.502,1.416,11.588,1.397,11.683z"/>
	<path fill="none" stroke="#AAB6CD" stroke-width="0.0979" stroke-miterlimit="10" d="M20.616,2.06
		c-7.6-2.836-16.06,1.033-18.889,8.633c-2.838,7.59,1.035,16.05,8.625,18.889c7.6,2.82,16.062-1.032,18.889-8.633
		C32.08,13.348,28.207,4.889,20.616,2.06z M12.603,23.541c-4.272-1.586-6.441-6.34-4.849-10.608
		c1.591-4.271,6.341-6.438,10.612-4.848c4.273,1.594,6.444,6.34,4.85,10.605C21.622,22.964,16.873,25.14,12.603,23.541z"/>
	<path fill="#AAB6CD" d="M16.429,7.615c-0.009-0.001-0.011-0.002-0.015-0.002l0.722-6.387C12.014,0.641,6.938,2.819,3.824,6.883
		l5.107,3.913C10.682,8.503,13.545,7.284,16.429,7.615z"/>
</g>
</svg>
