<?xml version="1.0" encoding="utf-8"?>
<!-- Generator: Adobe Illustrator 15.0.2, SVG Export Plug-In . SVG Version: 6.00 Build 0)  -->
<!DOCTYPE svg PUBLIC "-//W3C//DTD SVG 1.0//EN" "http://www.w3.org/TR/2001/REC-SVG-20010904/DTD/svg10.dtd">
<svg version="1.0" id="Ebene_1" xmlns="http://www.w3.org/2000/svg" xmlns:xlink="http://www.w3.org/1999/xlink" x="0px" y="0px"
	 width="300px" height="64px" viewBox="0 0 300 64" enable-background="new 0 0 300 64" xml:space="preserve">
<g>
	<path fill="none" d="M46.683,17.531L46.683,17.531c-0.657-0.477-1.345-0.932-2.087-1.316c-0.002-0.003-0.006-0.021-0.029-0.023
		c-0.162-0.093-0.342-0.167-0.503-0.257c-0.007-0.005-0.033-0.023-0.058-0.027c-0.16-0.091-0.323-0.163-0.503-0.228
		c-0.06-0.027-0.101-0.057-0.158-0.084c-0.123-0.06-0.246-0.099-0.371-0.156c-0.061-0.029-0.104-0.059-0.185-0.07
		c-0.163-0.064-0.326-0.148-0.507-0.214c-0.156-0.059-0.309-0.1-0.464-0.158c-0.098-0.034-0.195-0.064-0.292-0.098
		c-0.059-0.024-0.115-0.05-0.177-0.056c-0.097-0.033-0.197-0.065-0.31-0.097c-0.043-0.023-0.104-0.032-0.166-0.058
		c-0.095-0.029-0.19-0.04-0.281-0.066c-0.09-0.03-0.182-0.058-0.274-0.065c-0.063-0.025-0.128-0.052-0.194-0.06
		c-0.526-0.124-1.033-0.219-1.559-0.306c-0.002,0-0.005,0-0.007,0c-0.179-0.01-0.339-0.037-0.497-0.062
		c-6.283-0.724-12.503,1.937-16.335,6.928v0.002c-0.659,0.872-1.251,1.789-1.752,2.788c0,0,0,0,0,0.021
		c-0.191,0.377-0.375,0.753-0.535,1.154c-0.025,0.035-0.034,0.071-0.059,0.107c-0.069,0.206-0.156,0.396-0.222,0.585
		c-0.476,1.29-0.809,2.625-0.973,3.94h-0.002c-0.866,6.477,1.912,12.953,7.134,16.787l0,0c0.495,0.367,1,0.693,1.533,1.041
		c0.027,0.008,0.057,0.016,0.087,0.023c0.123,0.064,0.227,0.129,0.352,0.189c0.111,0.064,0.187,0.121,0.299,0.182
		c0.035,0.008,0.071,0.049,0.104,0.057c0.373,0.189,0.75,0.375,1.147,0.553c0.008,0,0.034,0.004,0.042,0.012
		c0.123,0.061,0.25,0.113,0.373,0.137c0.157,0.064,0.31,0.125,0.466,0.186c1.406,0.541,2.837,0.867,4.254,1.046l0,0
		c6.276,0.697,12.493-1.981,16.303-6.94v-0.004c1.04-1.375,1.911-2.932,2.564-4.662c0.477-1.314,0.79-2.629,0.973-3.951h0.004
		C54.685,27.841,51.906,21.38,46.683,17.531z"/>
	<path fill="#AAB6CD" d="M50.843,3.654c0.065,0.034,0.13,0.068,0.213,0.121C50.973,3.72,50.906,3.688,50.843,3.654z"/>
	<path fill="#AAB6CD" d="M52.278,4.441c0.041,0.028,0.099,0.062,0.158,0.095C52.376,4.504,52.315,4.473,52.278,4.441z"/>
	<path fill="#AAB6CD" d="M54.275,5.719c0.032,0.027,0.064,0.058,0.099,0.068C54.339,5.779,54.307,5.747,54.275,5.719z"/>
	<path fill="#AAB6CD" d="M53.654,5.311v0.002C53.654,5.312,53.654,5.312,53.654,5.311z"/>
	<path fill="#AAB6CD" d="M52.877,4.816c0.065,0.033,0.128,0.085,0.191,0.121C53.006,4.901,52.942,4.85,52.877,4.816z"/>
	<path fill="#AAB6CD" d="M51.469,3.998c0.069,0.036,0.152,0.089,0.223,0.124C51.622,4.068,51.538,4.031,51.469,3.998z"/>
	<path fill="#AAB6CD" d="M50.035,3.248c0.083,0.033,0.148,0.066,0.212,0.098C50.184,3.314,50.099,3.281,50.035,3.248z"/>
	<path fill="#AAB6CD" d="M47.847,2.284c0.066,0.028,0.148,0.059,0.211,0.086C47.996,2.34,47.913,2.312,47.847,2.284z"/>
	<path fill="#AAB6CD" d="M46.348,1.724c0.033,0.021,0.085,0.027,0.116,0.031C46.435,1.751,46.381,1.744,46.348,1.724z"/>
	<path fill="#AAB6CD" d="M67.565,37.246c-0.032,0.182-0.063,0.375-0.096,0.561C67.501,37.621,67.531,37.432,67.565,37.246z"/>
	<path fill="#AAB6CD" d="M49.372,2.937C49.439,2.968,49.505,3,49.588,3.031C49.505,2.997,49.439,2.966,49.372,2.937z"/>
	<path fill="#AAB6CD" d="M48.595,2.593c0.055,0.025,0.095,0.035,0.129,0.062C48.689,2.628,48.652,2.618,48.595,2.593z"/>
	<path fill="#AAB6CD" d="M66.808,40.629c-0.063,0.234-0.125,0.436-0.208,0.674C66.683,41.064,66.748,40.863,66.808,40.629z"/>
	<path fill="#AAB6CD" d="M64.694,46.125c-0.006,0.053-0.032,0.068-0.04,0.117C64.662,46.189,64.688,46.178,64.694,46.125z"/>
	<path fill="#AAB6CD" d="M65.406,44.613c-0.025,0.023-0.036,0.076-0.061,0.133C65.37,44.689,65.38,44.637,65.406,44.613z"/>
	<path fill="#AAB6CD" d="M64.34,46.867c-0.023,0.008-0.025,0.016-0.028,0.057C64.312,46.883,64.314,46.875,64.34,46.867z"/>
	<path fill="#AAB6CD" d="M63.934,47.613L63.934,47.613L63.934,47.613z"/>
	<path fill="#AAB6CD" d="M65.713,43.871c-0.027,0.061-0.056,0.121-0.085,0.178C65.658,43.992,65.686,43.932,65.713,43.871z"/>
	<path fill="#AAB6CD" d="M63.563,48.242c-0.028,0.057-0.057,0.072-0.064,0.121C63.526,48.314,63.533,48.299,63.563,48.242z"/>
	<path fill="#AAB6CD" d="M66.561,41.484c-0.087,0.213-0.158,0.463-0.248,0.713C66.402,41.984,66.475,41.697,66.561,41.484z"/>
	<path fill="#AAB6CD" d="M67.028,39.807c-0.059,0.189-0.095,0.383-0.155,0.576C66.934,40.189,66.972,40,67.028,39.807z"/>
	<path fill="#AAB6CD" d="M66.283,42.314c-0.096,0.295-0.192,0.568-0.309,0.867C66.089,42.883,66.186,42.609,66.283,42.314z"/>
	<path fill="#AAB6CD" d="M67.221,38.984c-0.036,0.148-0.088,0.334-0.125,0.52C67.132,39.318,67.185,39.137,67.221,38.984z"/>
	<path fill="#AAB6CD" d="M63.152,48.936c-0.023,0.008-0.029,0.053-0.053,0.061C63.123,48.988,63.127,48.943,63.152,48.936z"/>
	<path fill="#AAB6CD" d="M45.564,1.469c0.031,0.006,0.06,0.026,0.088,0.03C45.624,1.495,45.597,1.475,45.564,1.469z"/>
	<path fill="#AAB6CD" d="M67.405,38.125c-0.032,0.186-0.066,0.363-0.096,0.512C67.339,38.488,67.373,38.307,67.405,38.125z"/>
	<path fill="#AAB6CD" d="M44.001,1.027c0.055,0.004,0.086,0.011,0.122,0.031C44.069,1.038,44.036,1.034,44.001,1.027z"/>
	<path fill="#AAB6CD" d="M18.778,58.943c-0.277-0.145-0.532-0.33-0.805-0.508C18.248,58.613,18.503,58.799,18.778,58.943z"/>
	<path fill="#AAB6CD" d="M22.182,60.859c-1.001-0.488-1.967-1-2.901-1.598C20.217,59.826,21.181,60.371,22.182,60.859z"/>
	<path fill="#AAB6CD" d="M17.847,58.359c-0.122-0.102-0.226-0.174-0.345-0.25C17.621,58.186,17.725,58.258,17.847,58.359z"/>
	<path fill="#AAB6CD" d="M4.375,27.093C4.375,27.091,4.375,27.091,4.375,27.093C4.375,27.091,4.375,27.091,4.375,27.093z"/>
	<path fill="#AAB6CD" d="M23.593,61.488c-0.465-0.189-0.908-0.42-1.346-0.617C22.686,61.068,23.128,61.299,23.593,61.488z"/>
	<path fill="#AAB6CD" d="M19.253,59.254c-0.153-0.076-0.29-0.186-0.443-0.266C18.944,59.068,19.1,59.178,19.253,59.254z"/>
	<path fill="#AAB6CD" d="M29.067,63.238c-0.444-0.117-0.886-0.23-1.347-0.355C28.181,63.008,28.623,63.121,29.067,63.238z"/>
	<path fill="#AAB6CD" d="M27.462,62.814c-0.181-0.057-0.364-0.08-0.528-0.137C27.1,62.734,27.281,62.758,27.462,62.814z"/>
	<path fill="#AAB6CD" d="M25.687,62.262c-0.064-0.012-0.128-0.023-0.19-0.068C25.559,62.242,25.621,62.25,25.687,62.262z"/>
	<path fill="#AAB6CD" d="M26.559,62.561c-0.092-0.012-0.186-0.061-0.278-0.072C26.373,62.5,26.469,62.549,26.559,62.561z"/>
	<path fill="#AAB6CD" d="M24.189,61.738c-0.098-0.057-0.217-0.113-0.315-0.129C23.972,61.625,24.091,61.682,24.189,61.738z"/>
	<path fill="#AAB6CD" d="M4.472,26.473c0.024-0.07,0.029-0.154,0.054-0.224C4.501,26.337,4.498,26.403,4.472,26.473z"/>
	<path fill="#AAB6CD" d="M40.749,0.35c0.07,0.022,0.158,0.029,0.249,0.052C40.907,0.379,40.819,0.372,40.749,0.35z"/>
	<path fill="#AAB6CD" d="M39.975,0.251c0.115,0.006,0.213,0.028,0.312,0.035C40.188,0.279,40.09,0.275,39.975,0.251z"/>
	<path fill="#AAB6CD" d="M6.305,20.099c0.007-0.035,0.033-0.072,0.041-0.126C6.338,20.026,6.314,20.063,6.305,20.099z"/>
	<path fill="#AAB6CD" d="M6.624,19.336c0.001-0.021,0.005-0.029,0.026-0.055C6.628,19.305,6.626,19.315,6.624,19.336z"/>
	<path fill="#AAB6CD" d="M43.186,0.817c0.037,0.021,0.092,0.026,0.129,0.031C43.276,0.844,43.223,0.838,43.186,0.817z"/>
	<path fill="#AAB6CD" d="M41.597,0.498c0.084,0.007,0.149,0.03,0.216,0.037C41.746,0.528,41.681,0.505,41.597,0.498z"/>
	<path fill="#AAB6CD" d="M5.743,21.621c0.095-0.273,0.188-0.527,0.282-0.785C5.93,21.09,5.838,21.348,5.743,21.621z"/>
	<path fill="#AAB6CD" d="M4.81,24.878c0.008-0.095,0.037-0.188,0.063-0.282C4.844,24.691,4.818,24.784,4.81,24.878z"/>
	<path fill="#AAB6CD" d="M5,24.059c0.029-0.093,0.058-0.181,0.067-0.273C5.056,23.878,5.03,23.966,5,24.059z"/>
	<path fill="#AAB6CD" d="M4.626,25.694c0.026-0.076,0.033-0.188,0.06-0.282C4.659,25.506,4.652,25.618,4.626,25.694z"/>
	<path fill="#AAB6CD" d="M5.471,22.409c0.029-0.07,0.06-0.16,0.087-0.248C5.528,22.252,5.5,22.339,5.471,22.409z"/>
	<path fill="#AAB6CD" d="M5.222,23.244c0.027-0.091,0.057-0.182,0.084-0.251C5.279,23.064,5.249,23.152,5.222,23.244z"/>
	<path fill="#AAB6CD" d="M42.464,0.659c0.034,0.004,0.065,0.024,0.096,0.026C42.526,0.684,42.498,0.663,42.464,0.659z"/>
	<path fill="#AAB6CD" d="M40.59,14.623c0.091,0.026,0.188,0.039,0.281,0.068C40.776,14.66,40.682,14.649,40.59,14.623z"/>
	<path fill="#AAB6CD" d="M41.038,14.747c0.114,0.031,0.212,0.063,0.31,0.095C41.25,14.811,41.152,14.778,41.038,14.747z"/>
	<path fill="#AAB6CD" d="M41.524,14.881c0.099,0.052,0.194,0.08,0.292,0.116C41.718,14.961,41.623,14.933,41.524,14.881z"/>
	<path fill="#AAB6CD" d="M40.122,14.498c0.064,0.008,0.129,0.032,0.192,0.06C40.253,14.532,40.188,14.506,40.122,14.498z"/>
	<path fill="#AAB6CD" d="M19.378,25.131c0.025-0.036,0.033-0.072,0.059-0.107C19.412,25.059,19.403,25.095,19.378,25.131z"/>
	<path fill="#AAB6CD" d="M42.807,15.367c0.064,0.012,0.125,0.043,0.168,0.07C42.932,15.408,42.869,15.379,42.807,15.367z"/>
	<path fill="#AAB6CD" d="M38.537,14.192c0.019,0,0.021,0,0.024,0C38.558,14.192,38.556,14.192,38.537,14.192z"/>
	<path fill="#AAB6CD" d="M19.97,23.87c0-0.021,0-0.021,0-0.021S19.97,23.848,19.97,23.87z"/>
	<path fill="#AAB6CD" d="M26.936,47.508c-0.03-0.008-0.06-0.016-0.087-0.023C26.876,47.492,26.906,47.5,26.936,47.508z"/>
	<path fill="#AAB6CD" d="M43.346,15.594c0.06,0.027,0.117,0.056,0.156,0.066C43.462,15.649,43.406,15.623,43.346,15.594z"/>
	<path fill="#AAB6CD" d="M50.28,42.928c-3.81,4.959-10.027,7.638-16.286,6.94l-1.586,13.931c-1.099-0.125-2.216-0.311-3.318-0.557
		c12.562,2.77,25.501-2.303,32.878-12.552c-0.187,0.254-0.373,0.504-0.564,0.75L50.28,42.928z"/>
	<path fill="#AAB6CD" d="M25.314,46.443c-5.22-3.834-7.998-10.311-7.151-16.787L4.277,27.843c-1.554,11.653,3.509,23.271,13,30.093
		c-0.095-0.061-0.189-0.129-0.284-0.193L25.314,46.443z"/>
	<path fill="#AAB6CD" d="M44.024,15.907c0.006,0.002,0.032,0.022,0.042,0.027C44.056,15.93,44.03,15.911,44.024,15.907z"/>
	<path fill="#AAB6CD" d="M44.568,16.191c0.021,0,0.027,0.002,0.029,0.023C44.593,16.212,44.589,16.193,44.568,16.191z"/>
	<path fill="#AAB6CD" d="M53.837,34.314l13.887,1.814c-0.032,0.295-0.069,0.557-0.125,0.822c1.875-11.795-3.07-23.671-12.597-30.696
		l-8.32,11.28C51.906,21.38,54.685,27.841,53.837,34.314z"/>
	<path fill="#AAB6CD" d="M27.587,47.879c-0.112-0.061-0.207-0.117-0.299-0.182C27.399,47.758,27.475,47.818,27.587,47.879z"/>
	<path fill="#AAB6CD" d="M28.841,48.484c-0.399-0.178-0.774-0.359-1.149-0.549C28.065,48.125,28.441,48.307,28.841,48.484z"/>
	<path fill="#AAB6CD" d="M62.718,49.613c-0.034,0.064-0.088,0.122-0.123,0.187C62.65,49.735,62.684,49.674,62.718,49.613z"/>
	<path fill="#AAB6CD" d="M29.254,48.637c-0.124-0.023-0.248-0.076-0.373-0.137C29.026,48.557,29.131,48.613,29.254,48.637z"/>
	<path fill="#AAB6CD" d="M62.34,50.183c-0.061,0.072-0.123,0.178-0.184,0.258C62.216,50.36,62.279,50.255,62.34,50.183z"/>
	<path fill="#FFFFFF" d="M22.246,60.871c-0.028-0.008-0.054-0.012-0.062-0.012C22.19,60.863,22.217,60.863,22.246,60.871z"/>
	<path fill="#FFFFFF" d="M26.283,62.488c-0.192-0.064-0.404-0.129-0.596-0.227C25.881,62.359,26.088,62.424,26.283,62.488z"/>
	<path fill="#FFFFFF" d="M28.881,48.5c-0.008-0.012-0.033-0.012-0.042-0.016C28.848,48.488,28.873,48.488,28.881,48.5z"/>
	<path fill="#FFFFFF" d="M23.872,61.609c-0.093-0.053-0.188-0.102-0.281-0.121C23.686,61.508,23.779,61.557,23.872,61.609z"/>
	<path fill="#FFFFFF" d="M24.817,61.984c-0.199-0.102-0.413-0.174-0.628-0.246C24.402,61.811,24.619,61.883,24.817,61.984z"/>
	<path fill="#FFFFFF" d="M25.495,62.193c-0.237-0.068-0.459-0.137-0.677-0.209C25.038,62.057,25.257,62.125,25.495,62.193z"/>
	<path fill="#FFFFFF" d="M29.721,48.822c-0.156-0.061-0.31-0.121-0.466-0.186C29.411,48.697,29.564,48.762,29.721,48.822z"/>
	<path fill="#FFFFFF" d="M29.721,48.822c1.404,0.541,2.839,0.867,4.254,1.046l0,0C32.558,49.686,31.127,49.363,29.721,48.822z"/>
	<path fill="#FFFFFF" d="M19.281,59.262c-0.002-0.004-0.006-0.008-0.028-0.008C19.275,59.254,19.279,59.258,19.281,59.262z"/>
	<path fill="#FFFFFF" d="M25.314,46.443c0.497,0.371,1.002,0.693,1.535,1.041C26.316,47.137,25.811,46.811,25.314,46.443
		L25.314,46.443z"/>
	<path fill="#FFFFFF" d="M18.81,58.984c-0.022,0-0.026-0.037-0.032-0.041C18.782,58.947,18.788,58.984,18.81,58.984z"/>
	<path fill="#FFFFFF" d="M17.975,58.436c-0.036-0.049-0.074-0.064-0.128-0.076C17.901,58.375,17.938,58.387,17.975,58.436z"/>
	<path fill="#FFFFFF" d="M17.502,58.109c-0.07-0.057-0.156-0.113-0.224-0.174C17.348,57.996,17.434,58.057,17.502,58.109z"/>
	<path fill="#FFFFFF" d="M27.719,62.883c-0.09-0.012-0.183-0.023-0.257-0.064C27.538,62.859,27.629,62.871,27.719,62.883z"/>
	<path fill="#FFFFFF" d="M27.288,47.697c-0.125-0.061-0.229-0.125-0.352-0.189C27.057,47.572,27.163,47.637,27.288,47.697z"/>
	<path fill="#FFFFFF" d="M27.692,47.936c-0.036-0.012-0.07-0.053-0.104-0.061C27.622,47.887,27.656,47.924,27.692,47.936z"/>
	<path fill="#FFFFFF" d="M29.09,63.242c-0.021-0.004-0.021-0.004-0.023-0.004C29.069,63.238,29.069,63.238,29.09,63.242z"/>
	<path fill="#FFFFFF" d="M26.936,62.682c-0.125-0.053-0.251-0.072-0.377-0.121C26.685,62.609,26.81,62.629,26.936,62.682z"/>
	<path fill="#FFFFFF" d="M50.28,42.928c1.058-1.379,1.932-2.936,2.564-4.666C52.192,39.992,51.338,41.549,50.28,42.928L50.28,42.928
		z"/>
	<path fill="#FFFFFF" d="M67.289,38.633c-0.008,0.117-0.04,0.234-0.068,0.352C67.249,38.867,67.278,38.754,67.289,38.633z"/>
	<path fill="#FFFFFF" d="M66.601,41.299c-0.007,0.061-0.033,0.125-0.04,0.148C66.568,41.424,66.594,41.363,66.601,41.299z"/>
	<path fill="#FFFFFF" d="M52.844,38.262c0.496-1.314,0.812-2.629,0.994-3.951h-0.021C53.631,35.633,53.339,36.951,52.844,38.262z"/>
	<path fill="#FFFFFF" d="M62.595,49.8c-0.09,0.125-0.162,0.254-0.255,0.383C62.433,50.05,62.503,49.925,62.595,49.8z"/>
	<path fill="#FFFFFF" d="M67.096,39.508c-0.027,0.109-0.038,0.186-0.066,0.299C67.057,39.693,67.067,39.617,67.096,39.508z"/>
	<path fill="#FFFFFF" d="M65.345,44.746c-0.214,0.451-0.41,0.932-0.651,1.379C64.935,45.678,65.151,45.197,65.345,44.746z"/>
	<path fill="#FFFFFF" d="M63.499,48.363c-0.121,0.189-0.244,0.383-0.347,0.572C63.255,48.746,63.378,48.557,63.499,48.363z"/>
	<path fill="#FFFFFF" d="M63.1,49c-0.126,0.193-0.255,0.424-0.381,0.613C62.845,49.387,62.973,49.193,63.1,49z"/>
	<path fill="#FFFFFF" d="M64.654,46.242c-0.119,0.197-0.217,0.395-0.335,0.625C64.44,46.637,64.556,46.439,64.654,46.242z"/>
	<path fill="#FFFFFF" d="M66.874,40.383c-0.027,0.102-0.055,0.174-0.065,0.246C66.839,40.557,66.846,40.484,66.874,40.383z"/>
	<path fill="#FFFFFF" d="M63.934,47.613c-0.124,0.205-0.248,0.436-0.371,0.629C63.687,48.049,63.811,47.818,63.934,47.613z"/>
	<path fill="#FFFFFF" d="M65.971,43.178c-0.09,0.209-0.183,0.451-0.258,0.693C65.789,43.629,65.881,43.387,65.971,43.178z"/>
	<path fill="#FFFFFF" d="M65.628,44.053c-0.07,0.186-0.156,0.375-0.225,0.561C65.475,44.428,65.559,44.238,65.628,44.053z"/>
	<path fill="#FFFFFF" d="M66.313,42.197c-0.004,0.049-0.026,0.064-0.031,0.113C66.287,42.262,66.309,42.25,66.313,42.197z"/>
	<path fill="#FFFFFF" d="M67.469,37.807c-0.028,0.117-0.037,0.205-0.064,0.318C67.433,38.012,67.441,37.924,67.469,37.807z"/>
	<path fill="#FFFFFF" d="M64.308,46.924c-0.123,0.209-0.251,0.451-0.374,0.689C64.06,47.375,64.186,47.133,64.308,46.924z"/>
	<path fill="#FFFFFF" d="M67.6,36.951c-0.004,0.109-0.011,0.182-0.035,0.295C67.589,37.133,67.596,37.057,67.6,36.951z"/>
	<path fill="#FFFFFF" d="M61.969,50.69c0.061-0.08,0.125-0.186,0.185-0.258C62.093,50.509,62.029,50.61,61.969,50.69z"/>
	<path fill="#FFFFFF" d="M43.502,15.66c0.182,0.084,0.343,0.156,0.522,0.247C43.845,15.816,43.684,15.744,43.502,15.66z"/>
	<path fill="#FFFFFF" d="M44.067,15.935c0.181,0.09,0.343,0.164,0.501,0.257C44.408,16.099,44.246,16.024,44.067,15.935z"/>
	<path fill="#FFFFFF" d="M39.598,0.193L39.598,0.193c0.123,0.024,0.249,0.031,0.376,0.058C39.847,0.225,39.721,0.218,39.598,0.193z"
		/>
	<path fill="#FFFFFF" d="M46.683,17.531c-0.655-0.477-1.345-0.932-2.087-1.316C45.34,16.618,46.027,17.055,46.683,17.531
		L46.683,17.531z"/>
	<path fill="#FFFFFF" d="M53.656,5.314c0.214,0.129,0.408,0.277,0.619,0.407C54.064,5.589,53.871,5.441,53.656,5.314z"/>
	<path fill="#FFFFFF" d="M47.182,2.026c0.224,0.093,0.444,0.167,0.665,0.258C47.626,2.189,47.406,2.117,47.182,2.026z"/>
	<path fill="#FFFFFF" d="M40.872,14.689c0.062,0.022,0.125,0.032,0.166,0.058C40.996,14.724,40.934,14.715,40.872,14.689z"/>
	<path fill="#FFFFFF" d="M40.316,14.558c0.092,0.008,0.182,0.037,0.274,0.065C40.499,14.593,40.408,14.565,40.316,14.558z"/>
	<path fill="#FFFFFF" d="M48.743,2.654c0.199,0.093,0.413,0.188,0.629,0.282C49.158,2.842,48.942,2.745,48.743,2.654z"/>
	<path fill="#FFFFFF" d="M48.058,2.37c0.185,0.07,0.354,0.153,0.537,0.226C48.41,2.505,48.243,2.438,48.058,2.37z"/>
	<path fill="#FFFFFF" d="M44.124,1.059c0.473,0.126,0.966,0.258,1.442,0.41C45.087,1.316,44.595,1.185,44.124,1.059z"/>
	<path fill="#FFFFFF" d="M46.464,1.773c0.227,0.074,0.474,0.162,0.718,0.253C46.94,1.934,46.691,1.846,46.464,1.773z"/>
	<path fill="#FFFFFF" d="M41.347,14.842c0.062,0.008,0.118,0.031,0.177,0.039C41.465,14.875,41.409,14.85,41.347,14.842z"/>
	<path fill="#FFFFFF" d="M45.652,1.499c0.226,0.067,0.469,0.153,0.696,0.223C46.122,1.652,45.88,1.566,45.652,1.499z"/>
	<path fill="#FFFFFF" d="M55.005,6.252c-0.198-0.156-0.413-0.291-0.629-0.446C54.589,5.943,54.807,6.096,55.005,6.252L55.005,6.252z
		"/>
	<path fill="#FFFFFF" d="M49.588,3.031C49.746,3.1,49.9,3.183,50.035,3.253C49.9,3.181,49.744,3.1,49.588,3.031z"/>
	<path fill="#FFFFFF" d="M38.058,14.131c0.16,0.024,0.32,0.052,0.479,0.062C38.377,14.183,38.217,14.155,38.058,14.131z"/>
	<path fill="#FFFFFF" d="M53.068,4.938c0.209,0.122,0.399,0.246,0.586,0.373C53.467,5.184,53.278,5.06,53.068,4.938z"/>
	<path fill="#FFFFFF" d="M43.315,0.849c0.242,0.06,0.465,0.119,0.686,0.179C43.781,0.966,43.538,0.908,43.315,0.849z"/>
	<path fill="#FFFFFF" d="M52.433,4.536c0.154,0.093,0.29,0.186,0.444,0.28C52.725,4.722,52.587,4.629,52.433,4.536z"/>
	<path fill="#FFFFFF" d="M50.247,3.346c0.194,0.097,0.403,0.21,0.596,0.307C50.65,3.556,50.441,3.442,50.247,3.346z"/>
	<path fill="#FFFFFF" d="M38.563,14.192c0.526,0.087,1.035,0.182,1.56,0.304C39.598,14.374,39.089,14.281,38.563,14.192z"/>
	<path fill="#FFFFFF" d="M51.692,4.12c0.189,0.102,0.377,0.217,0.584,0.321C52.088,4.34,51.9,4.222,51.692,4.12z"/>
	<path fill="#FFFFFF" d="M51.056,3.773c0.135,0.066,0.282,0.139,0.414,0.223C51.338,3.912,51.191,3.84,51.056,3.773z"/>
	<path fill="#FFFFFF" d="M42.281,15.153c0.181,0.065,0.346,0.133,0.526,0.214C42.627,15.286,42.462,15.219,42.281,15.153z"/>
	<path fill="#FFFFFF" d="M41.812,0.535c0.217,0.052,0.433,0.089,0.649,0.124C42.247,0.622,42.032,0.587,41.812,0.535z"/>
	<path fill="#FFFFFF" d="M42.975,15.436c0.125,0.059,0.248,0.097,0.371,0.158C43.223,15.534,43.1,15.494,42.975,15.436z"/>
	<path fill="#FFFFFF" d="M40.287,0.288c0.155,0.025,0.306,0.053,0.46,0.08C40.595,0.338,40.442,0.313,40.287,0.288z"/>
	<path fill="#FFFFFF" d="M40.998,0.401c0.193,0.031,0.403,0.063,0.6,0.097C41.382,0.465,41.191,0.433,40.998,0.401z"/>
	<path fill="#FFFFFF" d="M41.816,14.997c0.154,0.059,0.309,0.1,0.464,0.158C42.125,15.094,41.972,15.037,41.816,14.997z"/>
	<path fill="#FFFFFF" d="M42.562,0.686c0.214,0.039,0.409,0.093,0.624,0.132C42.971,0.776,42.756,0.725,42.562,0.686z"/>
	<path fill="#FFFFFF" d="M4.375,27.091c0.031-0.21,0.065-0.406,0.097-0.618C4.44,26.685,4.406,26.881,4.375,27.091z"/>
	<path fill="#FFFFFF" d="M6.025,20.836c0.093-0.249,0.167-0.492,0.28-0.719C6.213,20.341,6.118,20.587,6.025,20.836z"/>
	<path fill="#FFFFFF" d="M4.277,27.843L4.277,27.843c0.031-0.252,0.064-0.499,0.099-0.75C4.342,27.342,4.307,27.591,4.277,27.843z"
		/>
	<path fill="#FFFFFF" d="M19.157,25.716c0.065-0.189,0.152-0.379,0.222-0.585C19.309,25.337,19.222,25.527,19.157,25.716z"/>
	<path fill="#FFFFFF" d="M10.596,12.533c-1.563,2.034-2.883,4.284-3.945,6.748C7.713,16.838,9.035,14.567,10.596,12.533
		L10.596,12.533z"/>
	<path fill="#FFFFFF" d="M19.437,25.024c0.161-0.401,0.344-0.777,0.533-1.154C19.781,24.247,19.598,24.623,19.437,25.024z"/>
	<path fill="#FFFFFF" d="M6.346,19.973c0.092-0.22,0.184-0.437,0.278-0.655C6.53,19.536,6.438,19.753,6.346,19.973z"/>
	<path fill="#FFFFFF" d="M21.723,21.059c-0.657,0.854-1.249,1.787-1.75,2.79C20.474,22.85,21.065,21.912,21.723,21.059
		L21.723,21.059z"/>
	<path fill="#FFFFFF" d="M5.066,23.786c0.058-0.186,0.115-0.375,0.154-0.54C5.183,23.411,5.125,23.598,5.066,23.786z"/>
	<path fill="#FFFFFF" d="M4.873,24.598C4.91,24.413,4.965,24.247,5,24.059C4.964,24.247,4.91,24.411,4.873,24.598z"/>
	<path fill="#FFFFFF" d="M4.686,25.412c0.035-0.163,0.089-0.349,0.121-0.513C4.754,25.061,4.721,25.245,4.686,25.412z"/>
	<path fill="#FFFFFF" d="M19.157,25.716c-0.496,1.29-0.811,2.625-0.975,3.94h0.002C18.348,28.341,18.681,27.006,19.157,25.716z"/>
	<path fill="#FFFFFF" d="M5.558,22.161c0.063-0.169,0.124-0.354,0.185-0.54C5.683,21.807,5.621,21.992,5.558,22.161z"/>
	<path fill="#FFFFFF" d="M4.528,26.25c0.031-0.188,0.063-0.37,0.1-0.556C4.592,25.879,4.559,26.062,4.528,26.25z"/>
	<path fill="#FFFFFF" d="M5.307,22.992c0.041-0.188,0.103-0.394,0.164-0.581C5.409,22.599,5.348,22.786,5.307,22.992z"/>
	<path fill="none" stroke="#AAB6CD" stroke-width="0.0979" stroke-miterlimit="10" d="M47.182,2.026
		c-16.559-6.179-34.99,2.25-41.155,18.81c-6.181,16.535,2.254,34.971,18.791,41.152c16.558,6.145,34.992-2.25,41.154-18.807
		C72.155,26.62,63.723,8.19,47.182,2.026z M29.721,48.822c-9.309-3.451-14.033-13.811-10.566-23.106
		c3.468-9.308,13.816-14.028,23.124-10.563c9.312,3.472,14.036,13.812,10.565,23.108C49.374,47.568,39.024,52.308,29.721,48.822z"/>
	<path fill="#AAB6CD" d="M38.058,14.131c-0.023-0.002-0.027-0.004-0.031-0.004l1.572-13.915C28.439-1.064,17.38,3.681,10.596,12.533
		l11.126,8.527C25.537,16.067,31.774,13.409,38.058,14.131z"/>
</g>
<g>
	<path fill="none" d="M122.685,17.536L122.685,17.536c-0.662-0.479-1.348-0.922-2.082-1.32c-0.004-0.008-0.011-0.012-0.027-0.012
		c-0.164-0.1-0.336-0.18-0.502-0.268c-0.016-0.008-0.037-0.02-0.053-0.023c-0.171-0.092-0.341-0.168-0.514-0.246
		c-0.057-0.021-0.103-0.049-0.156-0.072c-0.119-0.061-0.238-0.104-0.364-0.156c-0.062-0.027-0.119-0.055-0.183-0.084
		c-0.173-0.066-0.346-0.135-0.525-0.203c-0.153-0.061-0.304-0.111-0.456-0.16c-0.103-0.043-0.199-0.074-0.303-0.1
		c-0.06-0.016-0.107-0.031-0.168-0.051c-0.099-0.035-0.206-0.064-0.302-0.096c-0.061-0.02-0.12-0.033-0.18-0.057
		c-0.096-0.016-0.191-0.039-0.283-0.062c-0.088-0.025-0.176-0.053-0.264-0.068c-0.066-0.02-0.131-0.037-0.199-0.057
		c-0.522-0.123-1.038-0.219-1.56-0.295c-0.004,0-0.008,0-0.012,0c-0.171-0.027-0.331-0.047-0.49-0.064
		c-6.286-0.729-12.507,1.932-16.332,6.916v0.004c-0.659,0.865-1.244,1.791-1.75,2.787c-0.004,0-0.004,0-0.004,0.018
		c-0.191,0.375-0.371,0.758-0.535,1.153c-0.015,0.043-0.035,0.092-0.054,0.127c-0.073,0.184-0.157,0.379-0.225,0.574
		c-0.481,1.301-0.809,2.621-0.976,3.952l-0.008-0.012c-0.854,6.484,1.918,12.945,7.143,16.794V46.45
		c0.495,0.367,1.004,0.711,1.536,1.031c0.023,0.008,0.057,0.023,0.08,0.039c0.12,0.066,0.238,0.141,0.364,0.203
		c0.095,0.062,0.188,0.105,0.287,0.156c0.039,0.031,0.074,0.047,0.111,0.062c0.375,0.188,0.758,0.367,1.142,0.539
		c0.015,0.016,0.035,0.016,0.054,0.023c0.126,0.055,0.245,0.102,0.368,0.156c0.157,0.066,0.307,0.113,0.467,0.172
		c1.407,0.527,2.836,0.863,4.263,1.027v0.004c6.27,0.711,12.486-1.953,16.294-6.946l0,0c1.058-1.375,1.915-2.934,2.561-4.648
		c0.487-1.297,0.801-2.625,0.977-3.949h0.012C130.685,27.837,127.913,21.394,122.685,17.536z"/>
	<path fill="#AAB6CD" d="M126.845,3.654c0.068,0.037,0.135,0.072,0.211,0.117C126.979,3.723,126.913,3.691,126.845,3.654z"/>
	<path fill="#AAB6CD" d="M128.277,4.445c0.054,0.031,0.107,0.062,0.164,0.096C128.38,4.508,128.324,4.477,128.277,4.445z"/>
	<path fill="#AAB6CD" d="M130.27,5.721c0.036,0.023,0.073,0.057,0.104,0.08C130.337,5.777,130.306,5.744,130.27,5.721z"/>
	<path fill="#AAB6CD" d="M129.659,5.314L129.659,5.314L129.659,5.314z"/>
	<path fill="#AAB6CD" d="M128.886,4.82c0.063,0.043,0.137,0.084,0.199,0.123C129.023,4.898,128.95,4.863,128.886,4.82z"/>
	<path fill="#AAB6CD" d="M127.477,3.998c0.073,0.035,0.148,0.084,0.222,0.123C127.622,4.082,127.55,4.033,127.477,3.998z"/>
	<path fill="#AAB6CD" d="M126.052,3.252c0.062,0.031,0.13,0.068,0.195,0.096C126.186,3.32,126.114,3.283,126.052,3.252z"/>
	<path fill="#AAB6CD" d="M123.857,2.283c0.068,0.027,0.137,0.057,0.201,0.084C123.994,2.34,123.925,2.314,123.857,2.283z"/>
	<path fill="#AAB6CD" d="M122.362,1.729c0.035,0.012,0.068,0.023,0.104,0.031C122.43,1.752,122.397,1.744,122.362,1.729z"/>
	<path fill="#AAB6CD" d="M143.566,37.238c-0.036,0.188-0.068,0.375-0.096,0.562C143.502,37.613,143.531,37.426,143.566,37.238z"/>
	<path fill="#AAB6CD" d="M125.372,2.934c0.077,0.031,0.148,0.068,0.217,0.096C125.52,3.002,125.444,2.965,125.372,2.934z"/>
	<path fill="#AAB6CD" d="M124.599,2.594c0.052,0.02,0.091,0.037,0.145,0.061C124.69,2.631,124.651,2.619,124.599,2.594z"/>
	<path fill="#AAB6CD" d="M142.81,40.637c-0.061,0.219-0.128,0.438-0.193,0.656C142.678,41.074,142.749,40.855,142.81,40.637z"/>
	<path fill="#AAB6CD" d="M140.71,46.125c-0.016,0.052-0.036,0.075-0.059,0.11C140.675,46.192,140.69,46.169,140.71,46.125z"/>
	<path fill="#AAB6CD" d="M141.406,44.609c-0.012,0.035-0.041,0.09-0.061,0.133C141.365,44.699,141.387,44.645,141.406,44.609z"/>
	<path fill="#AAB6CD" d="M140.332,46.868c-0.012,0.008-0.02,0.023-0.023,0.051C140.312,46.892,140.32,46.876,140.332,46.868z"/>
	<path fill="#AAB6CD" d="M139.933,47.606C139.933,47.61,139.933,47.61,139.933,47.606C139.933,47.61,139.933,47.61,139.933,47.606z"
		/>
	<path fill="#AAB6CD" d="M141.712,43.871c-0.023,0.055-0.046,0.121-0.075,0.176C141.666,43.992,141.689,43.926,141.712,43.871z"/>
	<path fill="#AAB6CD" d="M139.566,48.247c-0.016,0.047-0.043,0.07-0.067,0.113C139.523,48.317,139.542,48.286,139.566,48.247z"/>
	<path fill="#AAB6CD" d="M142.566,41.473c-0.083,0.254-0.164,0.5-0.245,0.75C142.402,41.973,142.478,41.727,142.566,41.473z"/>
	<path fill="#AAB6CD" d="M143.028,39.801c-0.048,0.195-0.099,0.395-0.152,0.59C142.929,40.195,142.977,39.996,143.028,39.801z"/>
	<path fill="#AAB6CD" d="M142.286,42.316c-0.099,0.289-0.195,0.57-0.306,0.859C142.087,42.887,142.187,42.598,142.286,42.316z"/>
	<path fill="#AAB6CD" d="M143.228,38.973c-0.041,0.172-0.08,0.359-0.127,0.531C143.148,39.332,143.187,39.16,143.228,38.973z"/>
	<path fill="#AAB6CD" d="M139.148,48.942c-0.012,0.016-0.023,0.043-0.035,0.062C139.125,48.981,139.136,48.95,139.148,48.942z"/>
	<path fill="#AAB6CD" d="M121.571,1.469c0.03,0.01,0.057,0.021,0.084,0.029C121.624,1.49,121.601,1.479,121.571,1.469z"/>
	<path fill="#AAB6CD" d="M143.403,38.129c-0.029,0.176-0.068,0.355-0.103,0.52C143.335,38.484,143.371,38.305,143.403,38.129z"/>
	<path fill="#AAB6CD" d="M120.005,1.023c0.046,0.008,0.084,0.02,0.12,0.031C120.089,1.043,120.051,1.035,120.005,1.023z"/>
	<path fill="#AAB6CD" d="M94.776,58.947c-0.272-0.164-0.533-0.332-0.797-0.512C94.247,58.615,94.508,58.783,94.776,58.947z"/>
	<path fill="#AAB6CD" d="M98.183,60.854c-1.002-0.48-1.97-1.008-2.9-1.586C96.216,59.846,97.18,60.369,98.183,60.854z"/>
	<path fill="#AAB6CD" d="M93.851,58.354c-0.112-0.086-0.228-0.164-0.346-0.246C93.623,58.189,93.739,58.268,93.851,58.354z"/>
	<path fill="#AAB6CD" d="M99.598,61.482c-0.455-0.191-0.91-0.402-1.351-0.605C98.685,61.08,99.144,61.287,99.598,61.482z"/>
	<path fill="#AAB6CD" d="M95.262,59.26c-0.15-0.094-0.303-0.188-0.454-0.281C94.959,59.072,95.112,59.166,95.262,59.26z"/>
	<path fill="#AAB6CD" d="M105.074,63.229c-0.445-0.102-0.897-0.211-1.353-0.336C104.177,63.014,104.628,63.127,105.074,63.229z"/>
	<path fill="#AAB6CD" d="M103.462,62.826c-0.18-0.059-0.346-0.098-0.526-0.152C103.112,62.729,103.286,62.768,103.462,62.826z"/>
	<path fill="#AAB6CD" d="M101.692,62.271c-0.068-0.02-0.132-0.039-0.191-0.066C101.556,62.232,101.624,62.252,101.692,62.271z"/>
	<path fill="#AAB6CD" d="M102.562,62.557c-0.092-0.023-0.184-0.059-0.276-0.082C102.377,62.502,102.47,62.533,102.562,62.557z"/>
	<path fill="#AAB6CD" d="M100.192,61.732c-0.103-0.051-0.214-0.098-0.318-0.137C99.974,61.635,100.089,61.682,100.192,61.732z"/>
	<path fill="#AAB6CD" d="M116.751,0.361c0.083,0.012,0.16,0.02,0.247,0.035C116.911,0.381,116.834,0.373,116.751,0.361z"/>
	<path fill="#AAB6CD" d="M115.981,0.25c0.111,0.012,0.214,0.027,0.322,0.039C116.192,0.281,116.092,0.262,115.981,0.25z"/>
	<path fill="#AAB6CD" d="M82.305,20.112c0.012-0.047,0.031-0.088,0.048-0.123C82.336,20.024,82.321,20.065,82.305,20.112z"/>
	<path fill="#AAB6CD" d="M82.629,19.331c0.007-0.016,0.015-0.031,0.019-0.053C82.645,19.3,82.637,19.315,82.629,19.331z"/>
	<path fill="#AAB6CD" d="M119.192,0.82c0.036,0.012,0.086,0.023,0.127,0.031C119.274,0.844,119.228,0.836,119.192,0.82z"/>
	<path fill="#AAB6CD" d="M117.601,0.496c0.079,0.012,0.146,0.029,0.218,0.041C117.747,0.525,117.68,0.508,117.601,0.496z"/>
	<path fill="#AAB6CD" d="M81.742,21.62c0.093-0.268,0.188-0.521,0.284-0.789C81.93,21.095,81.835,21.349,81.742,21.62z"/>
	<path fill="#AAB6CD" d="M81.01,24.062c0.024-0.092,0.047-0.184,0.072-0.275C81.057,23.878,81.034,23.97,81.01,24.062z"/>
	<path fill="#AAB6CD" d="M81.478,22.427c0.027-0.088,0.055-0.168,0.082-0.26C81.532,22.259,81.504,22.339,81.478,22.427z"/>
	<path fill="#AAB6CD" d="M81.237,23.243c0.02-0.092,0.042-0.172,0.071-0.264C81.28,23.071,81.257,23.151,81.237,23.243z"/>
	<path fill="#AAB6CD" d="M118.465,0.664c0.036,0.004,0.065,0.016,0.1,0.023C118.53,0.676,118.501,0.664,118.465,0.664z"/>
	<path fill="#AAB6CD" d="M116.591,14.626c0.092,0.023,0.183,0.051,0.283,0.078C116.774,14.665,116.679,14.649,116.591,14.626z"/>
	<path fill="#AAB6CD" d="M117.054,14.745c0.096,0.035,0.199,0.064,0.303,0.096C117.253,14.81,117.15,14.78,117.054,14.745z"/>
	<path fill="#AAB6CD" d="M117.524,14.892c0.104,0.033,0.199,0.064,0.307,0.1C117.72,14.96,117.624,14.929,117.524,14.892z"/>
	<path fill="#AAB6CD" d="M116.125,14.497c0.067,0.02,0.133,0.037,0.199,0.057C116.257,14.534,116.192,14.517,116.125,14.497z"/>
	<path fill="#AAB6CD" d="M95.383,25.142c0.019-0.039,0.036-0.084,0.055-0.123C95.419,25.062,95.402,25.111,95.383,25.142z"/>
	<path fill="#AAB6CD" d="M118.804,15.362c0.064,0.021,0.122,0.053,0.183,0.076C118.929,15.415,118.868,15.392,118.804,15.362z"/>
	<path fill="#AAB6CD" d="M114.553,14.198c0.004,0.008,0.008,0.008,0.012,0.008C114.561,14.206,114.557,14.206,114.553,14.198z"/>
	<path fill="#AAB6CD" d="M95.973,23.853C95.973,23.849,95.973,23.849,95.973,23.853C95.973,23.849,95.973,23.849,95.973,23.853z"/>
	<path fill="#AAB6CD" d="M102.936,47.513c-0.023-0.008-0.052-0.023-0.08-0.035C102.884,47.489,102.913,47.505,102.936,47.513z"/>
	<path fill="#AAB6CD" d="M119.354,15.599c0.053,0.023,0.103,0.051,0.156,0.076C119.458,15.646,119.407,15.622,119.354,15.599z"/>
	<path fill="#FFFFFF" d="M126.286,42.918c-3.809,4.993-10.024,7.657-16.294,6.946l-1.576,13.931
		c-1.104-0.129-2.217-0.316-3.321-0.555c12.561,2.793,25.501-2.293,32.881-12.544c-0.188,0.254-0.375,0.504-0.563,0.754
		L126.286,42.918z"/>
	<path fill="#FFFFFF" d="M101.321,46.454c-5.224-3.856-7.997-10.31-7.143-16.794l-13.903-1.819
		c-1.53,11.655,3.526,23.266,13.005,30.095c-0.096-0.064-0.192-0.135-0.288-0.205L101.321,46.454z"/>
	<path fill="#AAB6CD" d="M120.024,15.913c0.012,0.004,0.033,0.016,0.057,0.023C120.057,15.929,120.036,15.917,120.024,15.913z"/>
	<path fill="#AAB6CD" d="M120.576,16.196c0.012,0.008,0.023,0.012,0.027,0.016C120.599,16.208,120.591,16.204,120.576,16.196z"/>
	<path fill="#FFFFFF" d="M129.835,34.316l13.891,1.812c-0.031,0.285-0.073,0.555-0.119,0.844
		c1.875-11.811-3.075-23.696-12.598-30.721l-8.324,11.28C127.913,21.394,130.685,27.837,129.835,34.316z"/>
	<path fill="#AAB6CD" d="M103.587,47.88c-0.095-0.055-0.192-0.094-0.287-0.156C103.395,47.774,103.488,47.825,103.587,47.88z"/>
	<path fill="#AAB6CD" d="M104.839,48.481c-0.384-0.172-0.766-0.352-1.142-0.547C104.073,48.13,104.456,48.31,104.839,48.481z"/>
	<path fill="#AAB6CD" d="M138.726,49.606c-0.041,0.062-0.08,0.125-0.122,0.18C138.638,49.731,138.682,49.665,138.726,49.606z"/>
	<path fill="#AAB6CD" d="M105.261,48.661c-0.123-0.059-0.242-0.105-0.368-0.164C105.022,48.552,105.146,48.603,105.261,48.661z"/>
	<path fill="#AAB6CD" d="M138.333,50.177c-0.059,0.086-0.12,0.18-0.179,0.262C138.218,50.349,138.278,50.259,138.333,50.177z"/>
	<path fill="#FFFFFF" d="M98.243,60.877c-0.022-0.016-0.049-0.023-0.061-0.031C98.194,60.854,98.221,60.861,98.243,60.877z"/>
	<path fill="#FFFFFF" d="M102.286,62.475c-0.199-0.066-0.398-0.121-0.598-0.203C101.888,62.354,102.086,62.408,102.286,62.475z"/>
	<path fill="#FFFFFF" d="M104.893,48.497c-0.019-0.008-0.039-0.008-0.054-0.023C104.862,48.489,104.874,48.489,104.893,48.497z"/>
	<path fill="#FFFFFF" d="M99.874,61.596c-0.092-0.039-0.184-0.082-0.279-0.109C99.69,61.514,99.782,61.557,99.874,61.596z"/>
	<path fill="#FFFFFF" d="M100.832,61.971c-0.217-0.086-0.424-0.164-0.64-0.242C100.403,61.807,100.614,61.885,100.832,61.971z"/>
	<path fill="#FFFFFF" d="M101.493,62.197c-0.224-0.07-0.443-0.148-0.669-0.227C101.049,62.053,101.269,62.131,101.493,62.197z"/>
	<path fill="#FFFFFF" d="M105.724,48.833c-0.16-0.062-0.307-0.105-0.468-0.172C105.425,48.724,105.568,48.774,105.724,48.833z"/>
	<path fill="#FFFFFF" d="M105.724,48.833c1.403,0.527,2.84,0.863,4.263,1.031V49.86C108.56,49.692,107.135,49.36,105.724,48.833z"/>
	<path fill="#FFFFFF" d="M95.286,59.268c-0.004,0-0.011-0.004-0.016-0.008C95.271,59.264,95.278,59.268,95.286,59.268z"/>
	<path fill="#FFFFFF" d="M101.321,46.454c0.495,0.367,1.004,0.707,1.543,1.023C102.325,47.161,101.812,46.813,101.321,46.454
		L101.321,46.454z"/>
	<path fill="#FFFFFF" d="M94.809,58.979c-0.009-0.008-0.021-0.023-0.032-0.031C94.788,58.955,94.799,58.971,94.809,58.979z"/>
	<path fill="#FFFFFF" d="M93.988,58.439c-0.049-0.031-0.089-0.062-0.137-0.094C93.903,58.377,93.939,58.408,93.988,58.439z"/>
	<path fill="#FFFFFF" d="M93.508,58.107c-0.076-0.055-0.156-0.105-0.228-0.168C93.349,57.994,93.433,58.053,93.508,58.107z"/>
	<path fill="#FFFFFF" d="M103.721,62.893c-0.087-0.02-0.172-0.043-0.259-0.066C103.549,62.854,103.634,62.873,103.721,62.893z"/>
	<path fill="#FFFFFF" d="M103.3,47.708c-0.122-0.059-0.24-0.125-0.364-0.195C103.056,47.583,103.174,47.661,103.3,47.708z"/>
	<path fill="#FFFFFF" d="M103.706,47.935c-0.04-0.023-0.08-0.039-0.114-0.062C103.622,47.896,103.661,47.911,103.706,47.935z"/>
	<path fill="#FFFFFF" d="M105.089,63.236c-0.004,0-0.008-0.008-0.015-0.008C105.081,63.229,105.085,63.236,105.089,63.236z"/>
	<path fill="#FFFFFF" d="M102.936,62.674c-0.123-0.043-0.248-0.07-0.378-0.117C102.688,62.604,102.813,62.639,102.936,62.674z"/>
	<path fill="#FFFFFF" d="M126.286,42.918c1.058-1.375,1.922-2.934,2.561-4.648C128.2,39.984,127.343,41.543,126.286,42.918
		L126.286,42.918z"/>
	<path fill="#FFFFFF" d="M143.3,38.645c-0.025,0.109-0.049,0.223-0.072,0.328C143.248,38.867,143.275,38.754,143.3,38.645z"/>
	<path fill="#FFFFFF" d="M142.612,41.289c-0.015,0.066-0.042,0.121-0.05,0.168C142.574,41.418,142.597,41.355,142.612,41.289z"/>
	<path fill="#FFFFFF" d="M128.847,38.27c0.487-1.297,0.812-2.629,0.992-3.953h-0.007C129.644,35.641,129.333,36.973,128.847,38.27z"
		/>
	<path fill="#FFFFFF" d="M138.6,49.786c-0.087,0.129-0.175,0.266-0.267,0.391C138.431,50.048,138.513,49.915,138.6,49.786z"/>
	<path fill="#FFFFFF" d="M143.101,39.512c-0.024,0.102-0.049,0.195-0.076,0.293C143.055,39.707,143.076,39.613,143.101,39.512z"/>
	<path fill="#FFFFFF" d="M141.345,44.742c-0.207,0.465-0.414,0.934-0.635,1.383C140.931,45.676,141.146,45.207,141.345,44.742z"/>
	<path fill="#FFFFFF" d="M139.499,48.36c-0.115,0.191-0.235,0.391-0.351,0.582C139.264,48.747,139.384,48.552,139.499,48.36z"/>
	<path fill="#FFFFFF" d="M139.113,49.005c-0.133,0.203-0.264,0.406-0.388,0.602C138.849,49.411,138.98,49.208,139.113,49.005z"/>
	<path fill="#FFFFFF" d="M140.655,46.235c-0.103,0.215-0.211,0.426-0.318,0.633C140.444,46.661,140.544,46.45,140.655,46.235z"/>
	<path fill="#FFFFFF" d="M142.872,40.391c-0.019,0.09-0.046,0.16-0.068,0.246C142.826,40.551,142.853,40.473,142.872,40.391z"/>
	<path fill="#FFFFFF" d="M139.933,47.61c-0.119,0.215-0.242,0.426-0.367,0.637C139.69,48.036,139.81,47.825,139.933,47.61z"/>
	<path fill="#FFFFFF" d="M141.976,43.168c-0.087,0.23-0.175,0.465-0.264,0.695C141.804,43.633,141.889,43.398,141.976,43.168z"/>
	<path fill="#FFFFFF" d="M141.637,44.051c-0.077,0.184-0.146,0.375-0.231,0.559C141.481,44.422,141.56,44.234,141.637,44.051z"/>
	<path fill="#FFFFFF" d="M142.317,42.207c-0.008,0.039-0.023,0.066-0.031,0.102C142.294,42.285,142.306,42.25,142.317,42.207z"/>
	<path fill="#FFFFFF" d="M143.47,37.801c-0.023,0.117-0.043,0.219-0.067,0.324C143.427,38.02,143.447,37.918,143.47,37.801z"/>
	<path fill="#FFFFFF" d="M140.308,46.919c-0.119,0.227-0.247,0.461-0.379,0.688C140.062,47.376,140.189,47.138,140.308,46.919z"/>
	<path fill="#FFFFFF" d="M143.615,36.973c-0.012,0.086-0.028,0.172-0.043,0.266C143.583,37.141,143.599,37.059,143.615,36.973z"/>
	<path fill="#FFFFFF" d="M137.972,50.692c0.063-0.086,0.127-0.176,0.183-0.262C138.099,50.517,138.035,50.606,137.972,50.692z"/>
	<path fill="#FFFFFF" d="M119.511,15.667c0.172,0.078,0.342,0.154,0.513,0.246C119.853,15.821,119.683,15.749,119.511,15.667z"/>
	<path fill="#FFFFFF" d="M120.073,15.937c0.172,0.092,0.342,0.176,0.502,0.268C120.416,16.112,120.249,16.024,120.073,15.937z"/>
	<path fill="#FFFFFF" d="M115.602,0.205L115.602,0.205c0.124,0.016,0.254,0.031,0.379,0.045
		C115.856,0.236,115.726,0.221,115.602,0.205z"/>
	<path fill="#FFFFFF" d="M122.685,17.536c-0.658-0.479-1.348-0.922-2.082-1.32C121.337,16.614,122.022,17.054,122.685,17.536
		L122.685,17.536z"/>
	<path fill="#FFFFFF" d="M129.659,5.318c0.213,0.131,0.409,0.271,0.611,0.406C130.068,5.586,129.873,5.445,129.659,5.318z"/>
	<path fill="#FFFFFF" d="M123.174,2.023c0.233,0.088,0.456,0.176,0.683,0.264C123.63,2.195,123.408,2.111,123.174,2.023z"/>
	<path fill="#FFFFFF" d="M116.87,14.696c0.06,0.016,0.124,0.041,0.18,0.053C116.994,14.729,116.93,14.712,116.87,14.696z"/>
	<path fill="#FFFFFF" d="M116.323,14.554c0.088,0.02,0.176,0.043,0.264,0.072C116.499,14.597,116.416,14.573,116.323,14.554z"/>
	<path fill="#FFFFFF" d="M124.744,2.654c0.206,0.092,0.418,0.188,0.628,0.283C125.162,2.842,124.95,2.742,124.744,2.654z"/>
	<path fill="#FFFFFF" d="M124.058,2.367c0.188,0.072,0.362,0.15,0.542,0.227C124.419,2.518,124.245,2.439,124.058,2.367z"/>
	<path fill="#FFFFFF" d="M120.125,1.055c0.478,0.123,0.96,0.264,1.447,0.414C121.084,1.322,120.603,1.182,120.125,1.055z"/>
	<path fill="#FFFFFF" d="M122.466,1.76c0.234,0.088,0.479,0.176,0.708,0.264C122.945,1.936,122.7,1.854,122.466,1.76z"/>
	<path fill="#FFFFFF" d="M117.352,14.841c0.061,0.02,0.108,0.039,0.168,0.055C117.464,14.876,117.413,14.86,117.352,14.841z"/>
	<path fill="#FFFFFF" d="M121.651,1.502c0.236,0.072,0.47,0.15,0.704,0.234C122.122,1.648,121.888,1.568,121.651,1.502z"/>
	<path fill="#FFFFFF" d="M131.009,6.256c-0.208-0.156-0.424-0.309-0.638-0.455C130.589,5.947,130.804,6.1,131.009,6.256
		L131.009,6.256z"/>
	<path fill="#FFFFFF" d="M125.589,3.033c0.154,0.08,0.307,0.146,0.463,0.219C125.896,3.176,125.743,3.105,125.589,3.033z"/>
	<path fill="#FFFFFF" d="M114.06,14.142c0.158,0.014,0.322,0.037,0.49,0.057C114.382,14.179,114.218,14.159,114.06,14.142z"/>
	<path fill="#FFFFFF" d="M129.085,4.943c0.188,0.119,0.383,0.242,0.574,0.371C129.468,5.186,129.273,5.062,129.085,4.943z"/>
	<path fill="#FFFFFF" d="M119.319,0.852c0.234,0.057,0.459,0.111,0.686,0.172C119.778,0.963,119.554,0.908,119.319,0.852z"/>
	<path fill="#FFFFFF" d="M128.438,4.541c0.15,0.096,0.294,0.188,0.449,0.283C128.74,4.729,128.587,4.637,128.438,4.541z"/>
	<path fill="#FFFFFF" d="M126.248,3.348c0.199,0.096,0.398,0.203,0.594,0.303C126.65,3.555,126.451,3.447,126.248,3.348z"/>
	<path fill="#FFFFFF" d="M114.565,14.206c0.522,0.076,1.037,0.172,1.56,0.291C115.602,14.378,115.087,14.282,114.565,14.206z"/>
	<path fill="#FFFFFF" d="M127.699,4.121c0.199,0.107,0.391,0.213,0.579,0.324C128.089,4.334,127.897,4.229,127.699,4.121z"/>
	<path fill="#FFFFFF" d="M127.052,3.771c0.141,0.074,0.283,0.146,0.425,0.227C127.335,3.914,127.197,3.842,127.052,3.771z"/>
	<path fill="#FFFFFF" d="M118.282,15.155c0.18,0.068,0.356,0.137,0.528,0.211C118.63,15.292,118.462,15.224,118.282,15.155z"/>
	<path fill="#FFFFFF" d="M117.819,0.537c0.216,0.043,0.432,0.082,0.643,0.123C118.251,0.619,118.035,0.58,117.819,0.537z"/>
	<path fill="#FFFFFF" d="M118.991,15.435c0.121,0.057,0.241,0.104,0.371,0.16C119.232,15.542,119.112,15.491,118.991,15.435z"/>
	<path fill="#FFFFFF" d="M116.3,0.293c0.148,0.023,0.295,0.045,0.451,0.068C116.599,0.338,116.448,0.312,116.3,0.293z"/>
	<path fill="#FFFFFF" d="M116.998,0.396c0.201,0.031,0.396,0.064,0.604,0.1C117.398,0.465,117.206,0.428,116.998,0.396z"/>
	<path fill="#FFFFFF" d="M117.823,14.997c0.152,0.055,0.303,0.104,0.456,0.158C118.125,15.101,117.979,15.048,117.823,14.997z"/>
	<path fill="#FFFFFF" d="M118.565,0.684c0.212,0.045,0.415,0.092,0.627,0.137C118.979,0.771,118.772,0.725,118.565,0.684z"/>
	<path fill="#FFFFFF" d="M82.026,20.823c0.088-0.24,0.179-0.475,0.279-0.711C82.205,20.349,82.114,20.583,82.026,20.823z"/>
	<path fill="#FFFFFF" d="M95.159,25.716c0.072-0.195,0.152-0.387,0.225-0.574C95.311,25.333,95.231,25.521,95.159,25.716z"/>
	<path fill="#FFFFFF" d="M86.601,12.54c-1.562,2.033-2.895,4.291-3.952,6.748C83.709,16.835,85.042,14.573,86.601,12.54
		L86.601,12.54z"/>
	<path fill="#FFFFFF" d="M95.438,25.019c0.164-0.401,0.348-0.784,0.535-1.167C95.786,24.235,95.606,24.624,95.438,25.019z"/>
	<path fill="#FFFFFF" d="M82.362,19.989c0.087-0.223,0.175-0.439,0.267-0.658C82.538,19.55,82.446,19.767,82.362,19.989z"/>
	<path fill="#FFFFFF" d="M97.728,21.058c-0.658,0.857-1.249,1.795-1.746,2.791C96.487,22.853,97.073,21.927,97.728,21.058
		L97.728,21.058z"/>
	<path fill="#FFFFFF" d="M81.082,23.79c0.052-0.18,0.103-0.367,0.156-0.543C81.184,23.423,81.133,23.61,81.082,23.79z"/>
	<path fill="#FFFFFF" d="M95.159,25.716c-0.482,1.305-0.812,2.625-0.98,3.944l0.008,0.012
		C94.354,28.341,94.681,27.021,95.159,25.716z"/>
	<path fill="#FFFFFF" d="M81.559,22.167c0.061-0.18,0.125-0.363,0.183-0.547C81.685,21.804,81.62,21.987,81.559,22.167z"/>
	<path fill="#FFFFFF" d="M81.309,22.987c0.055-0.182,0.116-0.375,0.172-0.561C81.424,22.612,81.364,22.806,81.309,22.987z"/>
	<path fill="none" stroke="#FFFFFF" stroke-width="0.0975" stroke-miterlimit="10" d="M123.174,2.023
		c-16.552-6.174-34.978,2.25-41.148,18.8c-6.177,16.548,2.246,34.981,18.797,41.147c16.552,6.168,34.983-2.25,41.149-18.803
		C148.149,26.619,139.738,8.189,123.174,2.023z M105.724,48.833C96.415,45.375,91.686,35.02,95.155,25.72
		c3.467-9.305,13.819-14.03,23.124-10.565c9.308,3.471,14.041,13.811,10.568,23.114C125.376,47.575,115.021,52.302,105.724,48.833z"
		/>
	<path fill="#FFFFFF" d="M114.06,14.142c-0.021-0.008-0.025-0.012-0.037-0.012l1.58-13.925
		c-11.158-1.271-22.205,3.471-29.001,12.327l11.127,8.521C101.551,16.073,107.774,13.413,114.06,14.142z"/>
</g>
<g>
	<path fill="none" d="M198.687,17.537L198.687,17.537c-0.661-0.482-1.349-0.922-2.078-1.324c0-0.004-0.023-0.016-0.031-0.016
		c-0.155-0.09-0.327-0.176-0.507-0.264c-0.008-0.008-0.032-0.02-0.056-0.023c-0.161-0.092-0.335-0.168-0.507-0.234
		c-0.054-0.025-0.11-0.052-0.148-0.079c-0.125-0.057-0.243-0.104-0.367-0.156c-0.062-0.027-0.125-0.055-0.188-0.076
		c-0.169-0.068-0.349-0.143-0.512-0.207c-0.157-0.059-0.297-0.107-0.462-0.158c-0.102-0.041-0.203-0.068-0.312-0.105
		c-0.057-0.016-0.087-0.031-0.159-0.051c-0.1-0.035-0.209-0.064-0.304-0.096c-0.062-0.012-0.116-0.033-0.178-0.053
		c-0.104-0.027-0.188-0.051-0.288-0.07c-0.079-0.025-0.174-0.057-0.259-0.072c-0.071-0.016-0.134-0.033-0.205-0.053
		c-0.515-0.119-1.046-0.219-1.554-0.291c-0.008,0-0.008,0-0.015,0c-0.174-0.023-0.328-0.047-0.493-0.059
		c-6.299-0.735-12.517,1.927-16.327,6.917v0.004c-0.655,0.855-1.249,1.783-1.759,2.779c0,0,0,0.004,0,0.012
		c-0.187,0.379-0.366,0.756-0.537,1.153c-0.016,0.047-0.038,0.082-0.057,0.127c-0.076,0.191-0.146,0.379-0.218,0.57
		c-0.483,1.305-0.803,2.628-0.977,3.955l-0.008-0.006c-0.857,6.483,1.906,12.941,7.139,16.789l0,0
		c0.491,0.363,0.998,0.695,1.531,1.023c0.029,0.012,0.046,0.031,0.086,0.039c0.108,0.082,0.24,0.137,0.358,0.207
		c0.093,0.063,0.188,0.11,0.281,0.161c0.046,0.016,0.085,0.035,0.116,0.066c0.375,0.176,0.76,0.363,1.142,0.531
		c0.023,0.008,0.038,0.008,0.053,0.027c0.128,0.055,0.251,0.098,0.377,0.152c0.156,0.062,0.312,0.125,0.468,0.176
		c1.407,0.523,2.828,0.863,4.267,1.027l0,0c6.26,0.715,12.477-1.953,16.272-6.935v-0.012c1.063-1.375,1.923-2.93,2.579-4.641
		c0.477-1.313,0.788-2.63,0.976-3.958l0,0C206.688,27.84,203.915,21.383,198.687,17.537z"/>
	<path fill="#AAB6CD" d="M202.835,3.657c0.063,0.037,0.15,0.072,0.212,0.115C202.985,3.725,202.914,3.694,202.835,3.657z"/>
	<path fill="#AAB6CD" d="M204.273,4.448c0.054,0.027,0.102,0.062,0.164,0.098C204.375,4.51,204.319,4.475,204.273,4.448z"/>
	<path fill="#AAB6CD" d="M206.267,5.723c0.038,0.021,0.071,0.051,0.107,0.078C206.338,5.774,206.305,5.745,206.267,5.723z"/>
	<path fill="#AAB6CD" d="M205.65,5.313c0,0,0,0.004,0.015,0.008C205.65,5.317,205.65,5.317,205.65,5.313z"/>
	<path fill="#AAB6CD" d="M204.875,4.819c0.069,0.041,0.14,0.08,0.204,0.123C205.015,4.899,204.944,4.86,204.875,4.819z"/>
	<path fill="#AAB6CD" d="M203.478,4c0.076,0.039,0.148,0.082,0.225,0.117C203.626,4.079,203.547,4.036,203.478,4z"/>
	<path fill="#AAB6CD" d="M202.046,3.25c0.064,0.031,0.136,0.068,0.195,0.1C202.188,3.319,202.11,3.286,202.046,3.25z"/>
	<path fill="#AAB6CD" d="M199.866,2.285c0.063,0.023,0.125,0.049,0.189,0.078C199.991,2.342,199.922,2.312,199.866,2.285z"/>
	<path fill="#AAB6CD" d="M198.358,1.732c0.031,0.008,0.079,0.025,0.103,0.031C198.43,1.754,198.39,1.74,198.358,1.732z"/>
	<path fill="#AAB6CD" d="M219.562,37.238c-0.039,0.188-0.062,0.384-0.102,0.563C219.501,37.614,219.523,37.427,219.562,37.238z"/>
	<path fill="#AAB6CD" d="M201.366,2.936c0.079,0.031,0.143,0.064,0.212,0.096C201.509,3,201.445,2.961,201.366,2.936z"/>
	<path fill="#AAB6CD" d="M200.61,2.596c0.039,0.018,0.085,0.033,0.123,0.061C200.695,2.633,200.649,2.613,200.61,2.596z"/>
	<path fill="#AAB6CD" d="M218.797,40.638c-0.046,0.215-0.117,0.438-0.187,0.66C218.68,41.067,218.743,40.853,218.797,40.638z"/>
	<path fill="#AAB6CD" d="M216.695,46.13c-0.007,0.035-0.022,0.07-0.053,0.113C216.673,46.2,216.688,46.165,216.695,46.13z"/>
	<path fill="#AAB6CD" d="M217.413,44.606c-0.038,0.051-0.054,0.094-0.062,0.137C217.359,44.7,217.375,44.657,217.413,44.606z"/>
	<path fill="#AAB6CD" d="M216.327,46.864c-0.007,0.016-0.015,0.027-0.022,0.051C216.312,46.892,216.32,46.88,216.327,46.864z"/>
	<path fill="#AAB6CD" d="M215.929,47.606L215.929,47.606L215.929,47.606z"/>
	<path fill="#AAB6CD" d="M217.702,43.872c-0.022,0.055-0.039,0.117-0.069,0.168C217.663,43.989,217.68,43.927,217.702,43.872z"/>
	<path fill="#AAB6CD" d="M215.562,48.248c-0.016,0.043-0.047,0.078-0.062,0.109C215.524,48.326,215.547,48.283,215.562,48.248z"/>
	<path fill="#AAB6CD" d="M218.562,41.474c-0.078,0.238-0.164,0.496-0.249,0.746C218.391,41.97,218.484,41.712,218.562,41.474z"/>
	<path fill="#AAB6CD" d="M219.024,39.806c-0.048,0.195-0.103,0.387-0.157,0.586C218.922,40.192,218.977,40.005,219.024,39.806z"/>
	<path fill="#AAB6CD" d="M218.288,42.317c-0.101,0.285-0.21,0.574-0.305,0.859C218.078,42.892,218.188,42.595,218.288,42.317z"/>
	<path fill="#AAB6CD" d="M219.227,38.97c-0.048,0.176-0.086,0.355-0.117,0.535C219.141,39.325,219.179,39.146,219.227,38.97z"/>
	<path fill="#AAB6CD" d="M215.14,48.939c-0.007,0.016-0.022,0.039-0.031,0.066C215.117,48.979,215.133,48.955,215.14,48.939z"/>
	<path fill="#AAB6CD" d="M197.57,1.471c0.039,0.012,0.064,0.02,0.094,0.029C197.624,1.49,197.609,1.482,197.57,1.471z"/>
	<path fill="#AAB6CD" d="M219.4,38.134c-0.033,0.176-0.071,0.352-0.094,0.512C219.329,38.485,219.367,38.306,219.4,38.134z"/>
	<path fill="#AAB6CD" d="M196.007,1.025c0.056,0.008,0.072,0.021,0.125,0.025C196.086,1.047,196.062,1.037,196.007,1.025z"/>
	<path fill="#AAB6CD" d="M170.791,58.957c-0.278-0.176-0.537-0.344-0.803-0.523C170.254,58.613,170.513,58.781,170.791,58.957z"/>
	<path fill="#AAB6CD" d="M174.192,60.852c-1.008-0.48-1.978-1.004-2.892-1.57C172.215,59.848,173.185,60.367,174.192,60.852z"/>
	<path fill="#AAB6CD" d="M169.862,58.352c-0.123-0.087-0.233-0.165-0.358-0.255C169.629,58.187,169.739,58.265,169.862,58.352z"/>
	<path fill="#AAB6CD" d="M156.387,27.091C156.387,27.087,156.387,27.087,156.387,27.091
		C156.387,27.087,156.387,27.087,156.387,27.091z"/>
	<path fill="#AAB6CD" d="M175.604,61.48c-0.459-0.191-0.912-0.395-1.35-0.613C174.691,61.086,175.145,61.289,175.604,61.48z"/>
	<path fill="#AAB6CD" d="M171.27,59.258c-0.148-0.094-0.305-0.188-0.453-0.281C170.958,59.07,171.121,59.164,171.27,59.258z"/>
	<path fill="#AAB6CD" d="M181.07,63.23c-0.445-0.105-0.891-0.219-1.344-0.34C180.18,63.012,180.634,63.125,181.07,63.23z"/>
	<path fill="#AAB6CD" d="M179.461,62.816c-0.164-0.051-0.345-0.09-0.515-0.141C179.116,62.727,179.297,62.766,179.461,62.816z"/>
	<path fill="#AAB6CD" d="M177.696,62.281c-0.062-0.031-0.14-0.051-0.194-0.074C177.557,62.234,177.634,62.25,177.696,62.281z"/>
	<path fill="#AAB6CD" d="M178.562,62.562c-0.087-0.023-0.179-0.059-0.274-0.09C178.384,62.504,178.476,62.539,178.562,62.562z"/>
	<path fill="#AAB6CD" d="M176.197,61.723c-0.095-0.043-0.211-0.09-0.32-0.121C175.986,61.633,176.087,61.68,176.197,61.723z"/>
	<path fill="#AAB6CD" d="M156.495,26.476c0-0.078,0.016-0.152,0.031-0.229C156.511,26.333,156.495,26.401,156.495,26.476z"/>
	<path fill="#AAB6CD" d="M192.751,0.358c0.087,0.014,0.174,0.025,0.259,0.041C192.916,0.38,192.838,0.372,192.751,0.358z"/>
	<path fill="#AAB6CD" d="M191.987,0.253c0.102,0.014,0.21,0.027,0.32,0.039C192.197,0.28,192.104,0.271,191.987,0.253z"/>
	<path fill="#AAB6CD" d="M158.308,20.108c0.015-0.045,0.033-0.088,0.055-0.129C158.34,20.026,158.323,20.067,158.308,20.108z"/>
	<path fill="#AAB6CD" d="M158.628,19.331c0.009-0.014,0.017-0.025,0.017-0.051C158.645,19.299,158.637,19.317,158.628,19.331z"/>
	<path fill="#AAB6CD" d="M195.188,0.823c0.046,0.01,0.086,0.02,0.14,0.031C195.274,0.843,195.234,0.833,195.188,0.823z"/>
	<path fill="#AAB6CD" d="M193.61,0.499c0.071,0.008,0.142,0.025,0.22,0.041C193.752,0.524,193.682,0.507,193.61,0.499z"/>
	<path fill="#AAB6CD" d="M157.747,21.622c0.092-0.271,0.18-0.525,0.279-0.795C157.926,21.092,157.831,21.35,157.747,21.622z"/>
	<path fill="#AAB6CD" d="M156.815,24.89c0.023-0.102,0.044-0.193,0.063-0.289C156.86,24.696,156.838,24.788,156.815,24.89z"/>
	<path fill="#AAB6CD" d="M157.012,24.057c0.027-0.096,0.054-0.178,0.077-0.27C157.066,23.883,157.039,23.965,157.012,24.057z"/>
	<path fill="#AAB6CD" d="M156.636,25.708c0.015-0.096,0.037-0.191,0.064-0.283C156.673,25.517,156.651,25.612,156.636,25.708z"/>
	<path fill="#AAB6CD" d="M157.481,22.415c0.03-0.076,0.061-0.162,0.079-0.244C157.542,22.256,157.511,22.338,157.481,22.415z"/>
	<path fill="#AAB6CD" d="M157.234,23.235c0.037-0.084,0.06-0.176,0.083-0.248C157.289,23.069,157.263,23.151,157.234,23.235z"/>
	<path fill="#AAB6CD" d="M194.464,0.663c0.037,0.01,0.076,0.02,0.102,0.027C194.54,0.683,194.501,0.673,194.464,0.663z"/>
	<path fill="#AAB6CD" d="M192.59,14.624c0.1,0.02,0.185,0.043,0.288,0.07C192.774,14.667,192.683,14.647,192.59,14.624z"/>
	<path fill="#AAB6CD" d="M193.056,14.747c0.095,0.031,0.204,0.061,0.304,0.096C193.26,14.808,193.15,14.778,193.056,14.747z"/>
	<path fill="#AAB6CD" d="M193.526,14.894c0.101,0.033,0.202,0.064,0.304,0.105C193.729,14.958,193.627,14.927,193.526,14.894z"/>
	<path fill="#AAB6CD" d="M192.126,14.499c0.071,0.012,0.134,0.037,0.205,0.053C192.26,14.536,192.197,14.519,192.126,14.499z"/>
	<path fill="#AAB6CD" d="M171.394,25.142c0.024-0.045,0.04-0.084,0.056-0.127C171.434,25.062,171.418,25.097,171.394,25.142z"/>
	<path fill="#AAB6CD" d="M194.804,15.364c0.071,0.021,0.126,0.049,0.188,0.076C194.938,15.413,194.875,15.386,194.804,15.364z"/>
	<path fill="#AAB6CD" d="M190.564,14.204h0.008H190.564z"/>
	<path fill="#AAB6CD" d="M171.979,23.862c0-0.008,0.009-0.012,0.009-0.012S171.979,23.854,171.979,23.862z"/>
	<path fill="#AAB6CD" d="M178.946,47.513c-0.025-0.008-0.064-0.027-0.079-0.039C178.882,47.485,178.921,47.505,178.946,47.513z"/>
	<path fill="#AAB6CD" d="M195.359,15.597c0.054,0.023,0.095,0.05,0.148,0.073C195.461,15.646,195.413,15.624,195.359,15.597z"/>
	<path fill="#AAB6CD" d="M202.272,42.927c-3.796,4.981-10.013,7.649-16.28,6.935l-1.579,13.928
		c-1.101-0.129-2.209-0.305-3.312-0.551c12.563,2.793,25.5-2.293,32.876-12.541c-0.188,0.262-0.376,0.504-0.562,0.75L202.272,42.927
		z"/>
	<path fill="#AAB6CD" d="M177.328,46.45c-5.222-3.855-7.996-10.306-7.138-16.789l-13.913-1.821
		c-1.532,11.649,3.522,23.263,13.015,30.092c-0.101-0.062-0.203-0.137-0.297-0.199L177.328,46.45z"/>
	<path fill="#AAB6CD" d="M196.015,15.91c0.023,0.004,0.048,0.016,0.056,0.023C196.062,15.926,196.038,15.914,196.015,15.91z"/>
	<path fill="#AAB6CD" d="M196.577,16.197c0.008,0,0.031,0.012,0.031,0.016C196.608,16.209,196.585,16.197,196.577,16.197z"/>
	<path fill="#AAB6CD" d="M205.827,34.32l13.907,1.809c-0.039,0.289-0.085,0.562-0.123,0.84c1.865-11.806-3.089-23.681-12.604-30.705
		l-8.32,11.277C203.915,21.383,206.688,27.84,205.827,34.32z"/>
	<path fill="#AAB6CD" d="M179.578,47.881c-0.086-0.051-0.188-0.098-0.273-0.161C179.39,47.771,179.492,47.83,179.578,47.881z"/>
	<path fill="#AAB6CD" d="M180.851,48.471c-0.396-0.16-0.772-0.348-1.149-0.527C180.078,48.131,180.454,48.311,180.851,48.471z"/>
	<path fill="#AAB6CD" d="M214.726,49.611c-0.046,0.059-0.085,0.113-0.115,0.172C214.641,49.725,214.68,49.662,214.726,49.611z"/>
	<path fill="#AAB6CD" d="M181.266,48.658c-0.126-0.055-0.249-0.098-0.368-0.152C181.024,48.553,181.14,48.604,181.266,48.658z"/>
	<path fill="#AAB6CD" d="M214.328,50.174c-0.054,0.09-0.102,0.18-0.181,0.27C214.227,50.346,214.274,50.26,214.328,50.174z"/>
	<path fill="#FFFFFF" d="M174.254,60.867c-0.023-0.008-0.047-0.016-0.062-0.023C174.207,60.859,174.23,60.859,174.254,60.867z"/>
	<path fill="#FFFFFF" d="M178.288,62.473c-0.201-0.059-0.397-0.129-0.599-0.191C177.891,62.344,178.087,62.406,178.288,62.473z"/>
	<path fill="#FFFFFF" d="M180.897,48.498c-0.023-0.012-0.038-0.02-0.062-0.027C180.859,48.479,180.874,48.486,180.897,48.498z"/>
	<path fill="#FFFFFF" d="M175.877,61.602c-0.102-0.047-0.188-0.09-0.273-0.117C175.689,61.512,175.775,61.555,175.877,61.602z"/>
	<path fill="#FFFFFF" d="M176.829,61.977c-0.21-0.09-0.414-0.172-0.632-0.254C176.415,61.805,176.619,61.887,176.829,61.977z"/>
	<path fill="#FFFFFF" d="M177.495,62.207c-0.228-0.082-0.438-0.156-0.666-0.238C177.057,62.051,177.268,62.129,177.495,62.207z"/>
	<path fill="#FFFFFF" d="M181.727,48.834c-0.148-0.051-0.297-0.113-0.461-0.176C181.43,48.713,181.578,48.775,181.727,48.834z"/>
	<path fill="#FFFFFF" d="M181.727,48.834c1.414,0.527,2.846,0.863,4.266,1.027l0,0C184.554,49.693,183.141,49.357,181.727,48.834z"
		/>
	<path fill="#FFFFFF" d="M171.301,59.273c-0.008,0-0.023-0.008-0.031-0.016C171.277,59.266,171.293,59.273,171.301,59.273z"/>
	<path fill="#FFFFFF" d="M177.328,46.45c0.492,0.363,0.999,0.695,1.539,1.023C178.327,47.146,177.82,46.813,177.328,46.45
		L177.328,46.45z"/>
	<path fill="#FFFFFF" d="M170.816,58.977c-0.007-0.008-0.025-0.02-0.025-0.02S170.81,58.969,170.816,58.977z"/>
	<path fill="#FFFFFF" d="M169.996,58.434c-0.055-0.039-0.103-0.066-0.134-0.09C169.894,58.375,169.941,58.395,169.996,58.434z"/>
	<path fill="#FFFFFF" d="M169.504,58.097c-0.069-0.051-0.141-0.098-0.227-0.164C169.363,57.991,169.435,58.046,169.504,58.097z"/>
	<path fill="#FFFFFF" d="M179.727,62.891c-0.094-0.02-0.172-0.039-0.273-0.07C179.555,62.852,179.633,62.871,179.727,62.891z"/>
	<path fill="#FFFFFF" d="M179.305,47.72c-0.117-0.074-0.243-0.133-0.358-0.207C179.062,47.587,179.172,47.649,179.305,47.72z"/>
	<path fill="#FFFFFF" d="M179.701,47.943c-0.029-0.035-0.077-0.055-0.115-0.062C179.624,47.896,179.672,47.908,179.701,47.943z"/>
	<path fill="#FFFFFF" d="M181.086,63.234c0,0-0.008-0.004-0.016-0.004C181.078,63.23,181.086,63.234,181.086,63.234z"/>
	<path fill="#FFFFFF" d="M178.946,62.676c-0.136-0.043-0.259-0.082-0.384-0.113C178.688,62.594,178.811,62.633,178.946,62.676z"/>
	<path fill="#FFFFFF" d="M202.272,42.927c1.057-1.387,1.932-2.941,2.579-4.652C204.204,39.985,203.329,41.54,202.272,42.927
		L202.272,42.927z"/>
	<path fill="#FFFFFF" d="M219.307,38.646c-0.041,0.109-0.064,0.223-0.08,0.324C219.25,38.868,219.266,38.755,219.307,38.646z"/>
	<path fill="#FFFFFF" d="M218.61,41.29c-0.025,0.062-0.048,0.117-0.057,0.18C218.57,41.407,218.585,41.353,218.61,41.29z"/>
	<path fill="#FFFFFF" d="M204.852,38.274c0.477-1.313,0.813-2.63,0.976-3.958l0,0C205.64,35.645,205.328,36.961,204.852,38.274z"/>
	<path fill="#FFFFFF" d="M214.603,49.783c-0.095,0.129-0.182,0.266-0.274,0.391C214.421,50.045,214.508,49.912,214.603,49.783z"/>
	<path fill="#FFFFFF" d="M219.109,39.513c-0.039,0.102-0.062,0.195-0.085,0.293C219.048,39.708,219.07,39.614,219.109,39.513z"/>
	<path fill="#FFFFFF" d="M217.352,44.743c-0.218,0.477-0.42,0.938-0.656,1.387C216.932,45.681,217.134,45.22,217.352,44.743z"/>
	<path fill="#FFFFFF" d="M215.501,48.357c-0.118,0.195-0.235,0.391-0.351,0.582C215.266,48.748,215.383,48.553,215.501,48.357z"/>
	<path fill="#FFFFFF" d="M215.108,49.006c-0.124,0.195-0.255,0.402-0.383,0.605C214.854,49.408,214.984,49.201,215.108,49.006z"/>
	<path fill="#FFFFFF" d="M216.649,46.243c-0.103,0.203-0.204,0.414-0.322,0.621C216.445,46.657,216.547,46.446,216.649,46.243z"/>
	<path fill="#FFFFFF" d="M218.867,40.392c-0.017,0.078-0.047,0.16-0.07,0.246C218.82,40.552,218.851,40.47,218.867,40.392z"/>
	<path fill="#FFFFFF" d="M215.921,47.606c-0.116,0.224-0.241,0.431-0.358,0.642C215.688,48.037,215.805,47.83,215.921,47.606z"/>
	<path fill="#FFFFFF" d="M217.983,43.177c-0.101,0.23-0.179,0.461-0.281,0.688C217.797,43.638,217.883,43.407,217.983,43.177z"/>
	<path fill="#FFFFFF" d="M217.633,44.044c-0.085,0.191-0.156,0.379-0.235,0.562C217.477,44.423,217.556,44.235,217.633,44.044z"/>
	<path fill="#FFFFFF" d="M218.313,42.208c0,0.039-0.018,0.066-0.025,0.102C218.296,42.282,218.313,42.251,218.313,42.208z"/>
	<path fill="#FFFFFF" d="M219.461,37.802c-0.017,0.117-0.039,0.23-0.061,0.332C219.422,38.021,219.444,37.919,219.461,37.802z"/>
	<path fill="#FFFFFF" d="M216.305,46.915c-0.126,0.23-0.249,0.469-0.376,0.691C216.063,47.38,216.179,47.138,216.305,46.915z"/>
	<path fill="#FFFFFF" d="M219.611,36.961c-0.008,0.098-0.033,0.18-0.049,0.277C219.578,37.141,219.604,37.059,219.611,36.961z"/>
	<path fill="#FFFFFF" d="M213.978,50.693c0.062-0.09,0.108-0.18,0.17-0.262C214.086,50.518,214.023,50.604,213.978,50.693z"/>
	<path fill="#FFFFFF" d="M195.515,15.67c0.172,0.076,0.346,0.152,0.508,0.236C195.86,15.822,195.687,15.746,195.515,15.67z"/>
	<path fill="#FFFFFF" d="M196.07,15.934c0.18,0.088,0.352,0.174,0.507,0.264C196.422,16.107,196.25,16.021,196.07,15.934z"/>
	<path fill="#FFFFFF" d="M191.611,0.206L191.611,0.206c0.126,0.014,0.249,0.027,0.376,0.047
		C191.86,0.233,191.737,0.22,191.611,0.206z"/>
	<path fill="#FFFFFF" d="M198.687,17.537c-0.661-0.482-1.349-0.922-2.078-1.324C197.338,16.615,198.025,17.055,198.687,17.537
		L198.687,17.537z"/>
	<path fill="#FFFFFF" d="M205.665,5.321c0.202,0.133,0.405,0.27,0.602,0.402C206.07,5.586,205.867,5.448,205.665,5.321z"/>
	<path fill="#FFFFFF" d="M199.18,2.02c0.236,0.092,0.453,0.178,0.68,0.27C199.633,2.193,199.416,2.107,199.18,2.02z"/>
	<path fill="#FFFFFF" d="M192.868,14.694c0.071,0.02,0.126,0.033,0.188,0.053C192.994,14.735,192.939,14.714,192.868,14.694z"/>
	<path fill="#FFFFFF" d="M192.331,14.552c0.085,0.016,0.171,0.047,0.259,0.072C192.502,14.599,192.416,14.571,192.331,14.552z"/>
	<path fill="#FFFFFF" d="M200.733,2.656c0.213,0.092,0.431,0.188,0.641,0.283C201.164,2.844,200.946,2.742,200.733,2.656z"/>
	<path fill="#FFFFFF" d="M200.056,2.363c0.187,0.078,0.366,0.15,0.555,0.232C200.422,2.514,200.242,2.441,200.056,2.363z"/>
	<path fill="#FFFFFF" d="M196.132,1.051c0.477,0.127,0.955,0.27,1.432,0.416C197.087,1.32,196.608,1.178,196.132,1.051z"/>
	<path fill="#FFFFFF" d="M198.461,1.764c0.241,0.086,0.477,0.174,0.719,0.256C198.945,1.938,198.702,1.85,198.461,1.764z"/>
	<path fill="#FFFFFF" d="M193.359,14.843c0.072,0.02,0.103,0.031,0.167,0.051C193.462,14.878,193.432,14.862,193.359,14.843z"/>
	<path fill="#FFFFFF" d="M197.649,1.5c0.24,0.07,0.477,0.15,0.709,0.227C198.126,1.65,197.89,1.57,197.649,1.5z"/>
	<path fill="#FFFFFF" d="M207.007,6.254c-0.202-0.156-0.42-0.303-0.64-0.457C206.587,5.952,206.805,6.102,207.007,6.254
		L207.007,6.254z"/>
	<path fill="#FFFFFF" d="M201.578,3.035c0.164,0.075,0.312,0.145,0.477,0.223C201.891,3.176,201.742,3.104,201.578,3.035z"/>
	<path fill="#FFFFFF" d="M190.064,14.144c0.165,0.014,0.319,0.037,0.493,0.053C190.384,14.181,190.229,14.157,190.064,14.144z"/>
	<path fill="#FFFFFF" d="M205.079,4.942c0.187,0.113,0.381,0.24,0.571,0.371C205.46,5.182,205.266,5.055,205.079,4.942z"/>
	<path fill="#FFFFFF" d="M195.32,0.854c0.243,0.057,0.469,0.114,0.687,0.171C195.773,0.965,195.557,0.911,195.32,0.854z"/>
	<path fill="#FFFFFF" d="M204.438,4.545c0.141,0.09,0.297,0.182,0.445,0.273C204.734,4.727,204.578,4.635,204.438,4.545z"/>
	<path fill="#FFFFFF" d="M202.249,3.354c0.196,0.098,0.391,0.197,0.602,0.297C202.64,3.551,202.445,3.452,202.249,3.354z"/>
	<path fill="#FFFFFF" d="M190.572,14.204c0.515,0.072,1.039,0.172,1.554,0.291C191.611,14.38,191.087,14.284,190.572,14.204z"/>
	<path fill="#FFFFFF" d="M203.702,4.118c0.189,0.109,0.384,0.221,0.571,0.33C204.086,4.338,203.892,4.227,203.702,4.118z"/>
	<path fill="#FFFFFF" d="M203.047,3.768c0.148,0.07,0.282,0.148,0.431,0.227C203.329,3.917,203.188,3.838,203.047,3.768z"/>
	<path fill="#FFFFFF" d="M194.275,15.153c0.18,0.068,0.359,0.137,0.528,0.205C194.635,15.296,194.455,15.222,194.275,15.153z"/>
	<path fill="#FFFFFF" d="M193.823,0.54c0.218,0.041,0.427,0.088,0.641,0.123C194.25,0.622,194.041,0.577,193.823,0.54z"/>
	<path fill="#FFFFFF" d="M194.992,15.437c0.124,0.053,0.242,0.1,0.367,0.16C195.234,15.54,195.116,15.493,194.992,15.437z"/>
	<path fill="#FFFFFF" d="M192.308,0.292c0.146,0.023,0.297,0.045,0.443,0.066C192.612,0.337,192.454,0.315,192.308,0.292z"/>
	<path fill="#FFFFFF" d="M193.01,0.394c0.196,0.031,0.392,0.064,0.601,0.102C193.401,0.464,193.206,0.431,193.01,0.394z"/>
	<path fill="#FFFFFF" d="M193.83,14.999c0.156,0.051,0.297,0.1,0.445,0.154C194.135,15.099,193.986,15.05,193.83,14.999z"/>
	<path fill="#FFFFFF" d="M194.572,0.687c0.201,0.041,0.413,0.088,0.623,0.137C194.985,0.774,194.766,0.728,194.572,0.687z"/>
	<path fill="#FFFFFF" d="M156.387,27.087c0.039-0.201,0.069-0.402,0.108-0.611C156.457,26.685,156.426,26.886,156.387,27.087z"/>
	<path fill="#FFFFFF" d="M158.026,20.827c0.095-0.244,0.181-0.484,0.282-0.719C158.207,20.342,158.121,20.583,158.026,20.827z"/>
	<path fill="#FFFFFF" d="M156.277,27.84L156.277,27.84c0.039-0.25,0.073-0.498,0.11-0.75
		C156.343,27.342,156.308,27.594,156.277,27.84z"/>
	<path fill="#FFFFFF" d="M171.167,25.712c0.071-0.191,0.148-0.379,0.227-0.57C171.324,25.333,171.238,25.521,171.167,25.712z"/>
	<path fill="#FFFFFF" d="M162.614,12.534c-1.571,2.038-2.907,4.292-3.969,6.746C159.715,16.836,161.051,14.571,162.614,12.534
		L162.614,12.534z"/>
	<path fill="#FFFFFF" d="M171.449,25.015c0.163-0.396,0.343-0.773,0.529-1.153C171.792,24.241,171.612,24.618,171.449,25.015z"/>
	<path fill="#FFFFFF" d="M158.363,19.985c0.087-0.219,0.18-0.439,0.274-0.654C158.542,19.545,158.443,19.766,158.363,19.985z"/>
	<path fill="#FFFFFF" d="M173.737,21.059c-0.655,0.857-1.249,1.795-1.75,2.791c0.501-0.996,1.095-1.928,1.758-2.783L173.737,21.059z
		"/>
	<path fill="#FFFFFF" d="M157.082,23.788c0.054-0.178,0.103-0.371,0.152-0.549C157.191,23.417,157.135,23.604,157.082,23.788z"/>
	<path fill="#FFFFFF" d="M156.878,24.604c0.047-0.188,0.091-0.363,0.126-0.547C156.97,24.241,156.926,24.417,156.878,24.604z"/>
	<path fill="#FFFFFF" d="M156.7,25.425c0.03-0.18,0.073-0.357,0.108-0.531C156.773,25.062,156.73,25.241,156.7,25.425z"/>
	<path fill="#FFFFFF" d="M171.167,25.712c-0.483,1.305-0.803,2.628-0.977,3.949v0.006C170.364,28.34,170.691,27.017,171.167,25.712z
		"/>
	<path fill="#FFFFFF" d="M157.56,22.17c0.07-0.188,0.131-0.371,0.187-0.549C157.69,21.803,157.629,21.987,157.56,22.17z"/>
	<path fill="#FFFFFF" d="M156.526,26.251c0.033-0.188,0.075-0.365,0.11-0.543C156.602,25.886,156.559,26.063,156.526,26.251z"/>
	<path fill="#FFFFFF" d="M157.309,22.991c0.062-0.191,0.123-0.379,0.172-0.57C157.432,22.608,157.371,22.795,157.309,22.991z"/>
	<path fill="none" stroke="#AAB6CD" stroke-width="0.0979" stroke-miterlimit="10" d="M199.18,2.02
		c-16.556-6.171-34.973,2.254-41.154,18.811c-6.178,16.542,2.252,34.969,18.803,41.138c16.549,6.164,34.976-2.242,41.147-18.792
		C224.141,26.618,215.733,8.19,199.18,2.02z M181.727,48.834c-9.284-3.462-14.027-13.814-10.56-23.118
		c3.461-9.3,13.81-14.024,23.108-10.559c9.312,3.474,14.036,13.812,10.576,23.125C201.374,47.579,191.026,52.297,181.727,48.834z"/>
	<path fill="#AAB6CD" d="M190.064,14.144c-0.017-0.008-0.023-0.012-0.039-0.012l1.586-13.926
		c-11.166-1.273-22.217,3.47-29.005,12.328l11.131,8.525C177.557,16.076,183.775,13.415,190.064,14.144z"/>
</g>
<g>
	<path fill="none" d="M274.678,17.539L274.678,17.539c-0.664-0.482-1.353-0.924-2.078-1.324c0-0.006-0.016-0.01-0.032-0.016
		c-0.156-0.09-0.336-0.178-0.499-0.264c-0.015-0.004-0.031-0.014-0.054-0.023c-0.167-0.088-0.338-0.168-0.511-0.24
		c-0.061-0.023-0.107-0.05-0.154-0.073c-0.126-0.057-0.243-0.104-0.368-0.16c-0.062-0.023-0.116-0.055-0.18-0.078
		c-0.179-0.068-0.351-0.141-0.529-0.205c-0.148-0.061-0.29-0.111-0.456-0.16c-0.095-0.041-0.194-0.068-0.305-0.102
		c-0.061-0.014-0.092-0.037-0.154-0.053c-0.102-0.031-0.219-0.061-0.304-0.096c-0.064-0.016-0.128-0.033-0.182-0.053
		c-0.1-0.023-0.187-0.049-0.289-0.078c-0.085-0.021-0.164-0.049-0.259-0.066c-0.069-0.014-0.13-0.039-0.202-0.055
		c-0.515-0.123-1.036-0.219-1.552-0.295c-0.008,0-0.018,0-0.018,0c-0.169-0.02-0.327-0.043-0.499-0.064
		c-6.288-0.725-12.5,1.935-16.321,6.917v0.004c-0.663,0.873-1.257,1.801-1.756,2.797c-0.016,0-0.016,0-0.016,0.012
		c-0.188,0.379-0.36,0.762-0.532,1.156c-0.015,0.039-0.038,0.086-0.053,0.127c-0.072,0.184-0.151,0.379-0.228,0.574
		c-0.477,1.301-0.799,2.621-0.969,3.947l-0.01-0.006c-0.857,6.483,1.915,12.941,7.144,16.793v-0.004
		c0.491,0.367,0.998,0.707,1.537,1.027c0.024,0.008,0.062,0.027,0.077,0.043c0.117,0.066,0.243,0.137,0.368,0.199
		c0.087,0.062,0.18,0.109,0.272,0.16c0.048,0.027,0.08,0.043,0.128,0.062c0.366,0.188,0.747,0.367,1.131,0.535
		c0.022,0.02,0.04,0.02,0.057,0.027c0.123,0.055,0.249,0.098,0.366,0.152c0.163,0.066,0.306,0.117,0.46,0.176
		c1.421,0.524,2.844,0.864,4.273,1.024v0.004c6.265,0.715,12.484-1.954,16.289-6.946l0,0c1.055-1.375,1.92-2.93,2.562-4.645
		c0.483-1.302,0.805-2.626,0.985-3.95h0.016C282.677,27.838,279.91,21.391,274.678,17.539z"/>
	<path fill="#AAB6CD" d="M278.825,3.653c0.079,0.037,0.148,0.074,0.22,0.117C278.974,3.727,278.904,3.696,278.825,3.653z"/>
	<path fill="#AAB6CD" d="M280.264,4.45c0.056,0.031,0.11,0.062,0.171,0.098C280.374,4.512,280.31,4.481,280.264,4.45z"/>
	<path fill="#AAB6CD" d="M282.256,5.723c0.047,0.023,0.07,0.057,0.108,0.08C282.326,5.78,282.303,5.747,282.256,5.723z"/>
	<path fill="#AAB6CD" d="M281.661,5.313L281.661,5.313L281.661,5.313z"/>
	<path fill="#AAB6CD" d="M280.88,4.821c0.064,0.041,0.134,0.08,0.195,0.121C281.014,4.901,280.944,4.862,280.88,4.821z"/>
	<path fill="#AAB6CD" d="M279.475,4c0.069,0.035,0.139,0.084,0.218,0.123C279.613,4.081,279.544,4.036,279.475,4z"/>
	<path fill="#AAB6CD" d="M278.044,3.25c0.062,0.031,0.134,0.07,0.197,0.096C278.178,3.325,278.106,3.288,278.044,3.25z"/>
	<path fill="#AAB6CD" d="M275.856,2.288c0.063,0.025,0.133,0.055,0.194,0.082C275.989,2.342,275.92,2.313,275.856,2.288z"/>
	<path fill="#AAB6CD" d="M274.356,1.735c0.034,0.008,0.072,0.021,0.095,0.031C274.429,1.756,274.391,1.743,274.356,1.735z"/>
	<path fill="#AAB6CD" d="M295.562,37.24c-0.039,0.188-0.07,0.375-0.093,0.563C295.499,37.615,295.522,37.428,295.562,37.24z"/>
	<path fill="#AAB6CD" d="M277.366,2.936c0.075,0.031,0.14,0.07,0.219,0.096C277.506,3,277.436,2.967,277.366,2.936z"/>
	<path fill="#AAB6CD" d="M276.599,2.592c0.046,0.02,0.095,0.039,0.141,0.061C276.685,2.635,276.645,2.616,276.599,2.592z"/>
	<path fill="#AAB6CD" d="M294.804,40.64c-0.064,0.219-0.134,0.438-0.196,0.652C294.67,41.077,294.739,40.858,294.804,40.64z"/>
	<path fill="#AAB6CD" d="M292.702,46.128c-0.016,0.051-0.033,0.074-0.064,0.105C292.669,46.194,292.687,46.167,292.702,46.128z"/>
	<path fill="#AAB6CD" d="M293.398,44.608c-0.017,0.039-0.041,0.094-0.057,0.137C293.357,44.702,293.382,44.647,293.398,44.608z"/>
	<path fill="#AAB6CD" d="M292.326,46.87c-0.017,0.008-0.017,0.023-0.024,0.047C292.31,46.894,292.31,46.878,292.326,46.87z"/>
	<path fill="#AAB6CD" d="M291.929,47.604C291.929,47.608,291.929,47.608,291.929,47.604
		C291.929,47.608,291.929,47.608,291.929,47.604z"/>
	<path fill="#AAB6CD" d="M293.702,43.874c-0.015,0.055-0.056,0.121-0.079,0.172C293.661,43.995,293.688,43.929,293.702,43.874z"/>
	<path fill="#AAB6CD" d="M291.561,48.249c-0.023,0.043-0.046,0.07-0.072,0.109C291.515,48.319,291.537,48.284,291.561,48.249z"/>
	<path fill="#AAB6CD" d="M294.56,41.472c-0.085,0.254-0.171,0.5-0.248,0.75C294.389,41.972,294.475,41.726,294.56,41.472z"/>
	<path fill="#AAB6CD" d="M295.013,39.804c-0.039,0.195-0.085,0.395-0.146,0.59C294.928,40.198,294.974,39.999,295.013,39.804z"/>
	<path fill="#AAB6CD" d="M294.281,42.319c-0.095,0.285-0.205,0.57-0.298,0.859C294.076,42.89,294.187,42.597,294.281,42.319z"/>
	<path fill="#AAB6CD" d="M295.225,38.972c-0.046,0.176-0.086,0.363-0.125,0.535C295.139,39.335,295.179,39.159,295.225,38.972z"/>
	<path fill="#AAB6CD" d="M291.139,48.944c-0.008,0.016-0.017,0.039-0.031,0.062C291.122,48.979,291.131,48.952,291.139,48.944z"/>
	<path fill="#AAB6CD" d="M273.568,1.473c0.038,0.012,0.054,0.02,0.078,0.027C273.614,1.493,273.606,1.485,273.568,1.473z"/>
	<path fill="#AAB6CD" d="M295.389,38.132c-0.022,0.176-0.062,0.355-0.095,0.52C295.326,38.487,295.366,38.308,295.389,38.132z"/>
	<path fill="#AAB6CD" d="M271.997,1.026c0.048,0.01,0.079,0.023,0.125,0.031C272.076,1.049,272.045,1.036,271.997,1.026z"/>
	<path fill="#AAB6CD" d="M246.773,58.95c-0.273-0.168-0.532-0.336-0.791-0.516C246.241,58.614,246.508,58.782,246.773,58.95z"/>
	<path fill="#AAB6CD" d="M250.186,60.854c-1.006-0.481-1.976-1.009-2.897-1.583C248.21,59.845,249.18,60.368,250.186,60.854z"/>
	<path fill="#AAB6CD" d="M245.851,58.353c-0.118-0.082-0.234-0.16-0.352-0.246C245.616,58.192,245.732,58.271,245.851,58.353z"/>
	<path fill="#AAB6CD" d="M251.586,61.482c-0.453-0.191-0.906-0.398-1.344-0.605C250.68,61.084,251.133,61.287,251.586,61.482z"/>
	<path fill="#AAB6CD" d="M247.255,59.263c-0.146-0.098-0.304-0.188-0.451-0.285C246.951,59.075,247.108,59.165,247.255,59.263z"/>
	<path fill="#AAB6CD" d="M257.07,63.229c-0.453-0.102-0.898-0.207-1.344-0.332C256.172,63.018,256.617,63.127,257.07,63.229z"/>
	<path fill="#AAB6CD" d="M255.452,62.83c-0.164-0.059-0.343-0.102-0.517-0.156C255.109,62.729,255.288,62.771,255.452,62.83z"/>
	<path fill="#AAB6CD" d="M253.688,62.275c-0.07-0.023-0.134-0.043-0.198-0.066C253.554,62.232,253.617,62.252,253.688,62.275z"/>
	<path fill="#AAB6CD" d="M254.562,62.557c-0.101-0.023-0.188-0.059-0.273-0.082C254.373,62.502,254.461,62.533,254.562,62.557z"/>
	<path fill="#AAB6CD" d="M252.187,61.732c-0.101-0.051-0.212-0.094-0.312-0.137C251.975,61.639,252.086,61.682,252.187,61.732z"/>
	<path fill="#AAB6CD" d="M268.74,0.365c0.086,0.014,0.17,0.021,0.249,0.035C268.91,0.386,268.826,0.373,268.74,0.365z"/>
	<path fill="#AAB6CD" d="M267.974,0.255c0.103,0.014,0.212,0.025,0.319,0.039C268.186,0.28,268.084,0.269,267.974,0.255z"/>
	<path fill="#AAB6CD" d="M234.304,20.11c0.017-0.041,0.024-0.084,0.055-0.123C234.328,20.026,234.32,20.069,234.304,20.11z"/>
	<path fill="#AAB6CD" d="M234.625,19.329c0.007-0.01,0.015-0.027,0.015-0.047C234.64,19.301,234.632,19.319,234.625,19.329z"/>
	<path fill="#AAB6CD" d="M271.186,0.826c0.038,0.01,0.077,0.023,0.126,0.031C271.263,0.843,271.224,0.835,271.186,0.826z"/>
	<path fill="#AAB6CD" d="M269.598,0.496c0.08,0.014,0.142,0.029,0.219,0.043C269.739,0.525,269.67,0.509,269.598,0.496z"/>
	<path fill="#AAB6CD" d="M233.741,21.618c0.086-0.266,0.188-0.523,0.282-0.789C233.929,21.094,233.827,21.352,233.741,21.618z"/>
	<path fill="#AAB6CD" d="M233.005,24.06c0.032-0.086,0.057-0.178,0.071-0.27C233.054,23.876,233.023,23.968,233.005,24.06z"/>
	<path fill="#AAB6CD" d="M233.476,22.428c0.031-0.088,0.047-0.17,0.077-0.256C233.522,22.258,233.499,22.34,233.476,22.428z"/>
	<path fill="#AAB6CD" d="M233.24,23.241c0.016-0.088,0.032-0.17,0.072-0.256C233.272,23.071,233.256,23.149,233.24,23.241z"/>
	<path fill="#AAB6CD" d="M270.451,0.666c0.038,0.004,0.062,0.014,0.102,0.021C270.522,0.679,270.489,0.669,270.451,0.666z"/>
	<path fill="#AAB6CD" d="M268.583,14.626c0.095,0.023,0.182,0.049,0.289,0.074C268.765,14.669,268.678,14.649,268.583,14.626z"/>
	<path fill="#AAB6CD" d="M269.046,14.749c0.093,0.031,0.202,0.061,0.304,0.096C269.248,14.81,269.139,14.78,269.046,14.749z"/>
	<path fill="#AAB6CD" d="M269.512,14.894c0.11,0.033,0.21,0.061,0.305,0.102C269.722,14.958,269.622,14.933,269.512,14.894z"/>
	<path fill="#AAB6CD" d="M268.122,14.501c0.063,0.018,0.126,0.033,0.195,0.057C268.255,14.538,268.186,14.519,268.122,14.501z"/>
	<path fill="#AAB6CD" d="M247.383,25.144c0.016-0.037,0.038-0.088,0.054-0.123C247.421,25.06,247.398,25.106,247.383,25.144z"/>
	<path fill="#AAB6CD" d="M270.794,15.36c0.063,0.023,0.125,0.055,0.188,0.078C270.927,15.415,270.865,15.388,270.794,15.36z"/>
	<path fill="#AAB6CD" d="M266.553,14.198c0,0.006,0.01,0.006,0.018,0.006C266.562,14.204,266.553,14.204,266.553,14.198z"/>
	<path fill="#AAB6CD" d="M247.977,23.856c0-0.004,0-0.004,0-0.004S247.977,23.853,247.977,23.856z"/>
	<path fill="#AAB6CD" d="M254.936,47.515c-0.022-0.008-0.054-0.027-0.077-0.039C254.882,47.487,254.913,47.507,254.936,47.515z"/>
	<path fill="#AAB6CD" d="M271.356,15.599c0.047,0.023,0.087,0.05,0.147,0.073C271.451,15.648,271.403,15.622,271.356,15.599z"/>
	<path fill="#FFFFFF" d="M278.28,42.917c-3.809,4.992-10.025,7.661-16.297,6.946l-1.571,13.932
		c-1.107-0.129-2.218-0.316-3.334-0.555c12.569,2.793,25.505-2.289,32.881-12.541c-0.173,0.254-0.374,0.504-0.563,0.754
		L278.28,42.917z"/>
	<path fill="#FFFFFF" d="M253.313,46.456c-5.229-3.859-7.993-10.31-7.144-16.793l-13.896-1.817
		c-1.532,11.653,3.523,23.259,12.999,30.096c-0.096-0.07-0.186-0.137-0.28-0.211L253.313,46.456z"/>
	<path fill="#AAB6CD" d="M272.015,15.912c0.022,0.004,0.039,0.014,0.054,0.023C272.054,15.926,272.037,15.922,272.015,15.912z"/>
	<path fill="#AAB6CD" d="M272.567,16.199c0.017,0,0.032,0.006,0.032,0.016C272.6,16.209,272.584,16.199,272.567,16.199z"/>
	<path fill="#FFFFFF" d="M281.827,34.318l13.896,1.812c-0.038,0.285-0.086,0.555-0.117,0.84c1.876-11.812-3.076-23.69-12.607-30.716
		l-8.321,11.28C279.91,21.391,282.677,27.838,281.827,34.318z"/>
	<path fill="#AAB6CD" d="M255.578,47.882c-0.095-0.055-0.195-0.098-0.282-0.16C255.383,47.776,255.483,47.827,255.578,47.882z"/>
	<path fill="#AAB6CD" d="M256.836,48.479c-0.385-0.168-0.759-0.348-1.133-0.543C256.069,48.132,256.451,48.312,256.836,48.479z"/>
	<path fill="#AAB6CD" d="M290.726,49.605c-0.049,0.062-0.095,0.125-0.128,0.18C290.631,49.73,290.677,49.664,290.726,49.605z"/>
	<path fill="#AAB6CD" d="M257.257,48.659c-0.124-0.059-0.25-0.102-0.373-0.16C257.014,48.55,257.133,48.601,257.257,48.659z"/>
	<path fill="#AAB6CD" d="M290.327,50.176c-0.064,0.09-0.117,0.18-0.18,0.266C290.21,50.348,290.263,50.262,290.327,50.176z"/>
	<path fill="#FFFFFF" d="M250.242,60.877c-0.033-0.016-0.048-0.023-0.064-0.031C250.194,60.854,250.209,60.861,250.242,60.877z"/>
	<path fill="#FFFFFF" d="M254.288,62.475c-0.212-0.066-0.406-0.121-0.601-0.199C253.882,62.354,254.076,62.408,254.288,62.475z"/>
	<path fill="#FFFFFF" d="M256.884,48.499c-0.017-0.012-0.026-0.012-0.057-0.027C256.857,48.487,256.867,48.487,256.884,48.499z"/>
	<path fill="#FFFFFF" d="M251.875,61.596c-0.103-0.039-0.189-0.078-0.289-0.109C251.686,61.518,251.772,61.557,251.875,61.596z"/>
	<path fill="#FFFFFF" d="M252.828,61.971c-0.219-0.082-0.431-0.164-0.642-0.242C252.397,61.807,252.609,61.889,252.828,61.971z"/>
	<path fill="#FFFFFF" d="M253.482,62.201c-0.226-0.074-0.437-0.152-0.663-0.23C253.046,62.053,253.257,62.131,253.482,62.201z"/>
	<path fill="#FFFFFF" d="M257.726,48.835c-0.164-0.062-0.306-0.109-0.469-0.176C257.42,48.722,257.562,48.776,257.726,48.835z"/>
	<path fill="#FFFFFF" d="M257.726,48.835c1.405,0.524,2.836,0.864,4.258,1.028v-0.004C260.554,49.695,259.131,49.359,257.726,48.835
		z"/>
	<path fill="#FFFFFF" d="M247.288,59.271c-0.015,0-0.022-0.004-0.033-0.008C247.266,59.267,247.273,59.271,247.288,59.271z"/>
	<path fill="#FFFFFF" d="M253.313,46.456c0.491,0.367,1.006,0.703,1.545,1.02C254.319,47.159,253.812,46.815,253.313,46.456
		L253.313,46.456z"/>
	<path fill="#FFFFFF" d="M246.804,58.978c-0.007-0.008-0.015-0.02-0.03-0.027C246.789,58.958,246.797,58.97,246.804,58.978z"/>
	<path fill="#FFFFFF" d="M245.982,58.442c-0.045-0.035-0.091-0.062-0.132-0.098C245.892,58.38,245.938,58.407,245.982,58.442z"/>
	<path fill="#FFFFFF" d="M245.499,58.106c-0.071-0.055-0.148-0.102-0.227-0.164C245.351,57.993,245.428,58.052,245.499,58.106z"/>
	<path fill="#FFFFFF" d="M255.711,62.896c-0.087-0.023-0.166-0.047-0.259-0.066C255.545,62.854,255.632,62.873,255.711,62.896z"/>
	<path fill="#FFFFFF" d="M255.296,47.71c-0.115-0.059-0.242-0.125-0.36-0.195C255.054,47.585,255.171,47.659,255.296,47.71z"/>
	<path fill="#FFFFFF" d="M255.703,47.937c-0.055-0.027-0.087-0.039-0.125-0.062C255.616,47.897,255.662,47.909,255.703,47.937z"/>
	<path fill="#FFFFFF" d="M257.078,63.236c0,0,0-0.008-0.008-0.008C257.078,63.229,257.078,63.236,257.078,63.236z"/>
	<path fill="#FFFFFF" d="M254.936,62.674c-0.123-0.043-0.259-0.07-0.374-0.117C254.677,62.604,254.805,62.643,254.936,62.674z"/>
	<path fill="#FFFFFF" d="M278.28,42.917c1.055-1.375,1.92-2.93,2.569-4.645C280.192,39.987,279.335,41.542,278.28,42.917
		L278.28,42.917z"/>
	<path fill="#FFFFFF" d="M295.294,38.647c-0.03,0.109-0.054,0.223-0.069,0.324C295.24,38.87,295.264,38.757,295.294,38.647z"/>
	<path fill="#FFFFFF" d="M294.607,41.288c-0.021,0.066-0.048,0.121-0.055,0.172C294.569,41.417,294.586,41.354,294.607,41.288z"/>
	<path fill="#FFFFFF" d="M280.85,38.272c0.468-1.302,0.812-2.63,0.985-3.954h-0.016C281.631,35.643,281.317,36.971,280.85,38.272z"
		/>
	<path fill="#FFFFFF" d="M290.598,49.785c-0.094,0.129-0.177,0.266-0.278,0.391C290.429,50.047,290.504,49.914,290.598,49.785z"/>
	<path fill="#FFFFFF" d="M295.1,39.515c-0.03,0.102-0.056,0.195-0.087,0.293C295.044,39.71,295.069,39.616,295.1,39.515z"/>
	<path fill="#FFFFFF" d="M293.342,44.745c-0.21,0.465-0.415,0.934-0.64,1.383C292.919,45.679,293.132,45.21,293.342,44.745z"/>
	<path fill="#FFFFFF" d="M291.499,48.358c-0.118,0.191-0.243,0.395-0.36,0.586C291.256,48.749,291.373,48.55,291.499,48.358z"/>
	<path fill="#FFFFFF" d="M291.107,49.007c-0.125,0.204-0.259,0.403-0.382,0.599C290.849,49.41,290.974,49.211,291.107,49.007z"/>
	<path fill="#FFFFFF" d="M292.646,46.233c-0.101,0.219-0.211,0.426-0.32,0.637C292.436,46.659,292.538,46.452,292.646,46.233z"/>
	<path fill="#FFFFFF" d="M294.866,40.394c-0.023,0.09-0.048,0.16-0.062,0.246C294.818,40.554,294.843,40.472,294.866,40.394z"/>
	<path fill="#FFFFFF" d="M291.929,47.608c-0.125,0.219-0.242,0.426-0.368,0.641C291.687,48.034,291.804,47.827,291.929,47.608z"/>
	<path fill="#FFFFFF" d="M293.976,43.167c-0.094,0.234-0.182,0.469-0.273,0.699C293.794,43.636,293.882,43.401,293.976,43.167z"/>
	<path fill="#FFFFFF" d="M293.623,44.054c-0.079,0.18-0.15,0.375-0.225,0.555C293.473,44.421,293.552,44.233,293.623,44.054z"/>
	<path fill="#FFFFFF" d="M294.312,42.21c-0.016,0.039-0.023,0.066-0.03,0.102C294.288,42.284,294.296,42.253,294.312,42.21z"/>
	<path fill="#FFFFFF" d="M295.469,37.804c-0.025,0.117-0.05,0.219-0.08,0.324C295.419,38.022,295.443,37.921,295.469,37.804z"/>
	<path fill="#FFFFFF" d="M292.302,46.917c-0.124,0.23-0.249,0.465-0.373,0.688C292.06,47.378,292.185,47.14,292.302,46.917z"/>
	<path fill="#FFFFFF" d="M295.606,36.971c-0.015,0.09-0.038,0.176-0.045,0.27C295.568,37.143,295.592,37.061,295.606,36.971z"/>
	<path fill="#FFFFFF" d="M289.974,50.695c0.063-0.09,0.118-0.176,0.174-0.266C290.092,50.52,290.022,50.605,289.974,50.695z"/>
	<path fill="#FFFFFF" d="M271.504,15.672c0.173,0.076,0.344,0.152,0.511,0.24C271.848,15.824,271.677,15.748,271.504,15.672z"/>
	<path fill="#FFFFFF" d="M272.068,15.936c0.172,0.086,0.343,0.174,0.508,0.264C272.411,16.109,272.248,16.021,272.068,15.936z"/>
	<path fill="#FFFFFF" d="M267.6,0.208L267.6,0.208c0.123,0.018,0.259,0.031,0.374,0.047C267.858,0.239,267.723,0.226,267.6,0.208z"
		/>
	<path fill="#FFFFFF" d="M274.678,17.539c-0.656-0.482-1.353-0.924-2.078-1.324C273.325,16.615,274.014,17.051,274.678,17.539
		L274.678,17.539z"/>
	<path fill="#FFFFFF" d="M281.661,5.317c0.204,0.133,0.398,0.271,0.595,0.406C282.06,5.588,281.865,5.45,281.661,5.317z"/>
	<path fill="#FFFFFF" d="M275.17,2.022c0.234,0.088,0.461,0.178,0.679,0.266C275.631,2.2,275.404,2.11,275.17,2.022z"/>
	<path fill="#FFFFFF" d="M268.864,14.696c0.054,0.02,0.117,0.039,0.182,0.053C268.989,14.735,268.918,14.716,268.864,14.696z"/>
	<path fill="#FFFFFF" d="M268.317,14.558c0.093,0.016,0.181,0.043,0.266,0.068C268.49,14.597,268.41,14.573,268.317,14.558z"/>
	<path fill="#FFFFFF" d="M276.739,2.653c0.202,0.092,0.416,0.188,0.627,0.283C277.161,2.844,276.941,2.745,276.739,2.653z"/>
	<path fill="#FFFFFF" d="M276.051,2.37c0.182,0.074,0.368,0.15,0.548,0.227C276.419,2.516,276.232,2.444,276.051,2.37z"/>
	<path fill="#FFFFFF" d="M272.122,1.057c0.478,0.123,0.953,0.266,1.438,0.416C273.075,1.323,272.6,1.18,272.122,1.057z"/>
	<path fill="#FFFFFF" d="M274.451,1.766c0.243,0.086,0.483,0.172,0.719,0.26C274.942,1.934,274.694,1.852,274.451,1.766z"/>
	<path fill="#FFFFFF" d="M269.357,14.845c0.062,0.012,0.094,0.035,0.154,0.055C269.451,14.876,269.411,14.856,269.357,14.845z"/>
	<path fill="#FFFFFF" d="M273.646,1.5c0.232,0.072,0.469,0.15,0.71,0.234C274.115,1.651,273.879,1.573,273.646,1.5z"/>
	<path fill="#FFFFFF" d="M282.999,6.261c-0.205-0.156-0.424-0.307-0.635-0.458C282.575,5.948,282.794,6.104,282.999,6.261
		L282.999,6.261z"/>
	<path fill="#FFFFFF" d="M277.585,3.032c0.155,0.08,0.296,0.146,0.467,0.219C277.881,3.178,277.74,3.112,277.585,3.032z"/>
	<path fill="#FFFFFF" d="M266.054,14.138c0.156,0.018,0.322,0.041,0.491,0.061C266.384,14.179,266.21,14.163,266.054,14.138z"/>
	<path fill="#FFFFFF" d="M281.075,4.942c0.189,0.119,0.384,0.242,0.586,0.371C281.459,5.184,281.265,5.065,281.075,4.942z"/>
	<path fill="#FFFFFF" d="M271.318,0.857c0.233,0.057,0.461,0.108,0.679,0.169C271.771,0.965,271.544,0.914,271.318,0.857z"/>
	<path fill="#FFFFFF" d="M280.435,4.547c0.142,0.096,0.297,0.188,0.445,0.283C280.731,4.729,280.576,4.637,280.435,4.547z"/>
	<path fill="#FFFFFF" d="M278.241,3.352c0.195,0.096,0.397,0.201,0.584,0.301C278.639,3.553,278.444,3.448,278.241,3.352z"/>
	<path fill="#FFFFFF" d="M266.57,14.204c0.508,0.078,1.037,0.174,1.552,0.293C267.6,14.378,267.078,14.282,266.57,14.204z"/>
	<path fill="#FFFFFF" d="M279.692,4.12c0.195,0.109,0.393,0.211,0.571,0.326C280.085,4.336,279.888,4.229,279.692,4.12z"/>
	<path fill="#FFFFFF" d="M279.045,3.77c0.142,0.074,0.282,0.148,0.43,0.227C279.327,3.915,279.187,3.844,279.045,3.77z"/>
	<path fill="#FFFFFF" d="M270.272,15.155c0.179,0.068,0.351,0.143,0.521,0.209C270.623,15.298,270.451,15.224,270.272,15.155z"/>
	<path fill="#FFFFFF" d="M269.809,0.542c0.213,0.041,0.433,0.08,0.643,0.123C270.241,0.619,270.021,0.583,269.809,0.542z"/>
	<path fill="#FFFFFF" d="M270.981,15.438c0.125,0.057,0.251,0.104,0.368,0.16C271.232,15.542,271.115,15.495,270.981,15.438z"/>
	<path fill="#FFFFFF" d="M268.293,0.294c0.151,0.023,0.29,0.043,0.447,0.067C268.599,0.337,268.444,0.317,268.293,0.294z"/>
	<path fill="#FFFFFF" d="M268.989,0.396c0.203,0.031,0.399,0.064,0.608,0.1C269.389,0.464,269.192,0.427,268.989,0.396z"/>
	<path fill="#FFFFFF" d="M269.816,15.001c0.158,0.055,0.297,0.104,0.456,0.158C270.124,15.101,269.982,15.05,269.816,15.001z"/>
	<path fill="#FFFFFF" d="M270.561,0.687c0.203,0.049,0.421,0.092,0.625,0.139C270.974,0.775,270.764,0.73,270.561,0.687z"/>
	<path fill="#FFFFFF" d="M234.023,20.823c0.084-0.242,0.18-0.475,0.28-0.713C234.203,20.348,234.107,20.584,234.023,20.823z"/>
	<path fill="#FFFFFF" d="M247.148,25.714c0.076-0.191,0.155-0.383,0.234-0.57C247.312,25.331,247.225,25.522,247.148,25.714z"/>
	<path fill="#FFFFFF" d="M238.6,12.54c-1.562,2.033-2.897,4.288-3.96,6.742C235.702,16.838,237.046,14.573,238.6,12.54L238.6,12.54z
		"/>
	<path fill="#FFFFFF" d="M247.429,25.021c0.172-0.4,0.359-0.783,0.548-1.164C247.788,24.237,247.601,24.626,247.429,25.021z"/>
	<path fill="#FFFFFF" d="M234.358,19.987c0.085-0.219,0.18-0.439,0.267-0.654C234.538,19.547,234.443,19.762,234.358,19.987z"/>
	<path fill="#FFFFFF" d="M249.725,21.055c-0.655,0.859-1.24,1.797-1.748,2.793c0.508-1,1.093-1.924,1.748-2.79V21.055z"/>
	<path fill="#FFFFFF" d="M233.069,23.79c0.056-0.184,0.102-0.371,0.164-0.549C233.179,23.419,233.125,23.612,233.069,23.79z"/>
	<path fill="#FFFFFF" d="M247.148,25.714c-0.477,1.305-0.799,2.625-0.979,3.949l0.019,0.006
		C246.356,28.342,246.679,27.019,247.148,25.714z"/>
	<path fill="#FFFFFF" d="M233.553,22.172c0.063-0.188,0.126-0.367,0.188-0.551C233.679,21.805,233.616,21.985,233.553,22.172z"/>
	<path fill="#FFFFFF" d="M233.302,22.985c0.057-0.188,0.12-0.375,0.174-0.562C233.422,22.61,233.358,22.801,233.302,22.985z"/>
	<path fill="none" stroke="#FFFFFF" stroke-width="0.0975" stroke-miterlimit="10" d="M275.17,2.022
		c-16.554-6.171-34.976,2.25-41.146,18.801c-6.173,16.55,2.247,34.979,18.796,41.148c16.554,6.168,34.983-2.251,41.156-18.804
		C300.139,26.614,291.731,8.192,275.17,2.022z M257.726,48.835c-9.306-3.457-14.033-13.813-10.577-23.117
		c3.467-9.3,13.827-14.028,23.124-10.562c9.303,3.47,14.037,13.812,10.577,23.117C277.374,47.577,267.009,52.299,257.726,48.835z"/>
	<path fill="#FFFFFF" d="M266.054,14.138c-0.016,0-0.03-0.004-0.038-0.004L267.6,0.208c-11.163-1.27-22.21,3.47-29,12.332
		l11.125,8.519C253.546,16.078,259.766,13.413,266.054,14.138z"/>
</g>
<polygon fill="#CB1800" points="212.57,14.833 220,9.165 210.82,9.165 207.992,-0.002 205.156,9.165 196,9.165 203.405,14.833 
	200.57,24 207.992,18.337 215.405,24 "/>
<polygon fill="#CB1800" points="288.59,14.835 296,9.166 286.835,9.166 284,0.001 281.184,9.166 272,9.166 279.41,14.835 276.59,24 
	284,18.339 291.409,24 "/>
</svg>
